<svg width="179" height="199" viewBox="0 0 179 199" fill="none" xmlns="http://www.w3.org/2000/svg">
<path d="M0 199H137.558V167.007H0V199ZM107.199 13.8135L113.591 17.754C128.209 -5.50494 141.717 0.771032 141.717 0.771032L131.804 29.0316L148.146 39.1627L149.462 56.7589L179 114.746L159.031 130.407C159.031 130.407 146.733 111.003 140.851 107.127C135.963 103.927 121.95 101.661 115.095 100.728L84.1261 59.7182L78.6237 65.349L95.658 87.9095C95.5984 88.0054 95.5434 88.1068 95.4838 88.2134C79.0777 119.231 106.03 144.569 126.888 158.481H10.6974C14.76 -9.97331 107.199 13.8135 107.199 13.8135Z" fill="white"/>
</svg>
