<svg width="1440" height="593" viewBox="0 0 1440 593" fill="none" xmlns="http://www.w3.org/2000/svg">
<path d="M150.055 0.00976562H100.025V48.1515H150.055V0.00976562ZM-49.9875 48.1289V96.2706H0.0427322V48.1289H-49.9875ZM50.073 0.00976562H0.0427322V48.1515H50.073V0.00976562ZM100.103 192.501V240.643H150.133V192.501H100.103ZM-49.9875 144.375V192.516H0.0427322V144.375H-49.9875ZM250.077 0.00976562H200.046V48.1515H250.077V0.00976562ZM350.137 0.00976562H300.107V48.1515H350.137V0.00976562ZM50.073 192.501H0.0427322V240.643H50.073V192.501ZM350.098 336.851V288.709H300.068V336.851H350.098ZM350.098 240.568V192.426H300.068V240.568H350.098ZM250.077 384.993H300.107V336.851H250.077V384.993ZM350.137 144.375V96.233H300.107V144.375H350.137ZM50.073 384.993H100.103V336.851H50.073V384.993ZM-49.9875 384.993H0.0427322V336.851H-49.9875V384.993ZM150.055 384.993H200.086V336.851H150.055V384.993ZM-49.9875 240.62V288.762H0.0427322V240.62H-49.9875ZM200.07 96.2555V48.1138H150.04V96.2555H200.07ZM150.04 192.539H200.07V144.397H150.04V192.539ZM100.009 288.822V336.964H150.04V288.822H100.009ZM200.07 240.681H250.1V192.539H200.07V240.681ZM200.07 144.435H250.1V96.2931H200.07V144.435ZM200.07 288.807V336.949H250.1V288.807H200.07ZM0.0427322 288.747V336.889H50.073V288.747H0.0427322ZM100.103 96.2555V48.1138H50.073V96.2555H100.103ZM250.131 288.747H300.162V240.605H250.131V288.747ZM150.071 144.375V96.233H100.041V144.375H150.071ZM250.131 48.1289V96.2706H300.162V48.1289H250.131ZM150.071 240.62V288.762H200.101V240.62H150.071ZM100.041 144.375H50.073V192.516H100.103L100.041 144.375ZM250.069 192.516H300.099V144.375H250.069V192.516ZM50.073 96.2555H0.0427322V144.397H50.073V96.2555ZM50.073 240.62V288.762H100.103V240.62H50.073Z" fill="black"/>
<path d="M542.512 0.00976562H492.482V48.1515H542.512V0.00976562ZM342.469 48.1289V96.2706H392.5V48.1289H342.469ZM442.53 0.00976562H392.5V48.1515H442.53V0.00976562ZM492.56 192.501V240.643H542.59V192.501H492.56ZM342.469 144.375V192.516H392.5V144.375H342.469ZM642.534 0.00976562H592.503V48.1515H642.534V0.00976562ZM742.594 0.00976562H692.564V48.1515H742.594V0.00976562ZM442.53 192.501H392.5V240.643H442.53V192.501ZM742.555 336.851V288.709H692.525V336.851H742.555ZM742.555 240.568V192.426H692.525V240.568H742.555ZM642.534 384.993H692.564V336.851H642.534V384.993ZM742.594 144.375V96.233H692.564V144.375H742.594ZM442.53 384.993H492.56V336.851H442.53V384.993ZM342.469 384.993H392.5V336.851H342.469V384.993ZM542.512 384.993H592.542V336.851H542.512V384.993ZM342.469 240.62V288.762H392.5V240.62H342.469ZM592.527 96.2555V48.1138H542.497V96.2555H592.527ZM542.497 192.539H592.527V144.397H542.497V192.539ZM492.466 288.822V336.964H542.497V288.822H492.466ZM592.527 240.681H642.557V192.539H592.527V240.681ZM592.527 144.435H642.557V96.2931H592.527V144.435ZM592.527 288.807V336.949H642.557V288.807H592.527ZM392.5 288.747V336.889H442.53V288.747H392.5ZM492.56 96.2555V48.1138H442.53V96.2555H492.56ZM642.588 288.747H692.619V240.605H642.588V288.747ZM542.528 144.375V96.233H492.498V144.375H542.528ZM642.588 48.1289V96.2706H692.619V48.1289H642.588ZM542.528 240.62V288.762H592.558V240.62H542.528ZM492.498 144.375H442.53V192.516H492.56L492.498 144.375ZM642.526 192.516H692.556V144.375H642.526V192.516ZM442.53 96.2555H392.5V144.397H442.53V96.2555ZM442.53 240.62V288.762H492.56V240.62H442.53Z" fill="black"/>
<path d="M942.637 0.00976562H892.607V48.1515H942.637V0.00976562ZM742.594 48.1289V96.2706H792.624V48.1289H742.594ZM842.655 0.00976562H792.624V48.1515H842.655V0.00976562ZM892.685 192.501V240.643H942.715V192.501H892.685ZM742.594 144.375V192.516H792.624V144.375H742.594ZM1042.66 0.00976562H992.628V48.1515H1042.66V0.00976562ZM1142.72 0.00976562H1092.69V48.1515H1142.72V0.00976562ZM842.655 192.501H792.624V240.643H842.655V192.501ZM1142.68 336.851V288.709H1092.65V336.851H1142.68ZM1142.68 240.568V192.426H1092.65V240.568H1142.68ZM1042.66 384.993H1092.69V336.851H1042.66V384.993ZM1142.72 144.375V96.233H1092.69V144.375H1142.72ZM842.655 384.993H892.685V336.851H842.655V384.993ZM742.594 384.993H792.624V336.851H742.594V384.993ZM942.637 384.993H992.667V336.851H942.637V384.993ZM742.594 240.62V288.762H792.624V240.62H742.594ZM992.652 96.2555V48.1138H942.621V96.2555H992.652ZM942.621 192.539H992.652V144.397H942.621V192.539ZM892.591 288.822V336.964H942.621V288.822H892.591ZM992.652 240.681H1042.68V192.539H992.652V240.681ZM992.652 144.435H1042.68V96.2931H992.652V144.435ZM992.652 288.807V336.949H1042.68V288.807H992.652ZM792.624 288.747V336.889H842.655V288.747H792.624ZM892.685 96.2555V48.1138H842.655V96.2555H892.685ZM1042.71 288.747H1092.74V240.605H1042.71V288.747ZM942.653 144.375V96.233H892.622V144.375H942.653ZM1042.71 48.1289V96.2706H1092.74V48.1289H1042.71ZM942.653 240.62V288.762H992.683V240.62H942.653ZM892.622 144.375H842.655V192.516H892.685L892.622 144.375ZM1042.65 192.516H1092.68V144.375H1042.65V192.516ZM842.655 96.2555H792.624V144.397H842.655V96.2555ZM842.655 240.62V288.762H892.685V240.62H842.655Z" fill="black"/>
<path d="M150.055 50.7385H100.025V98.8802H150.055V50.7385ZM-49.9875 98.8576V146.999H0.0427322V98.8576H-49.9875ZM50.073 50.7385H0.0427322V98.8802H50.073V50.7385ZM100.103 243.23V291.372H150.133V243.23H100.103ZM-49.9875 195.103V243.245H0.0427322V195.103H-49.9875ZM250.077 50.7385H200.046V98.8802H250.077V50.7385ZM350.137 50.7385H300.107V98.8802H350.137V50.7385ZM50.073 243.23H0.0427322V291.372H50.073V243.23ZM350.098 387.58V339.438H300.068V387.58H350.098ZM350.098 291.297V243.155H300.068V291.297H350.098ZM250.077 435.722H300.107V387.58H250.077V435.722ZM350.137 195.103V146.962H300.107V195.103H350.137ZM50.073 435.722H100.103V387.58H50.073V435.722ZM-49.9875 435.722H0.0427322V387.58H-49.9875V435.722ZM150.055 435.722H200.086V387.58H150.055V435.722ZM-49.9875 291.349V339.491H0.0427322V291.349H-49.9875ZM200.07 146.984V98.8426H150.04V146.984H200.07ZM150.04 243.268H200.07V195.126H150.04V243.268ZM100.009 339.551V387.693H150.04V339.551H100.009ZM200.07 291.409H250.1V243.268H200.07V291.409ZM200.07 195.164H250.1V147.022H200.07V195.164ZM200.07 339.536V387.678H250.1V339.536H200.07ZM0.0427322 339.476V387.617H50.073V339.476H0.0427322ZM100.103 146.984V98.8426H50.073V146.984H100.103ZM250.131 339.476H300.162V291.334H250.131V339.476ZM150.071 195.103V146.962H100.041V195.103H150.071ZM250.131 98.8576V146.999H300.162V98.8576H250.131ZM150.071 291.349V339.491H200.101V291.349H150.071ZM100.041 195.103H50.073V243.245H100.103L100.041 195.103ZM250.069 243.245H300.099V195.103H250.069V243.245ZM50.073 146.984H0.0427322V195.126H50.073V146.984ZM50.073 291.349V339.491H100.103V291.349H50.073Z" fill="black"/>
<path d="M542.512 50.7385H492.482V98.8802H542.512V50.7385ZM342.469 98.8576V146.999H392.5V98.8576H342.469ZM442.53 50.7385H392.5V98.8802H442.53V50.7385ZM492.56 243.23V291.372H542.59V243.23H492.56ZM342.469 195.103V243.245H392.5V195.103H342.469ZM642.534 50.7385H592.503V98.8802H642.534V50.7385ZM742.594 50.7385H692.564V98.8802H742.594V50.7385ZM442.53 243.23H392.5V291.372H442.53V243.23ZM742.555 387.58V339.438H692.525V387.58H742.555ZM742.555 291.297V243.155H692.525V291.297H742.555ZM642.534 435.722H692.564V387.58H642.534V435.722ZM742.594 195.103V146.962H692.564V195.103H742.594ZM442.53 435.722H492.56V387.58H442.53V435.722ZM342.469 435.722H392.5V387.58H342.469V435.722ZM542.512 435.722H592.542V387.58H542.512V435.722ZM342.469 291.349V339.491H392.5V291.349H342.469ZM592.527 146.984V98.8426H542.497V146.984H592.527ZM542.497 243.268H592.527V195.126H542.497V243.268ZM492.466 339.551V387.693H542.497V339.551H492.466ZM592.527 291.409H642.557V243.268H592.527V291.409ZM592.527 195.164H642.557V147.022H592.527V195.164ZM592.527 339.536V387.678H642.557V339.536H592.527ZM392.5 339.476V387.617H442.53V339.476H392.5ZM492.56 146.984V98.8426H442.53V146.984H492.56ZM642.588 339.476H692.619V291.334H642.588V339.476ZM542.528 195.103V146.962H492.498V195.103H542.528ZM642.588 98.8576V146.999H692.619V98.8576H642.588ZM542.528 291.349V339.491H592.558V291.349H542.528ZM492.498 195.103H442.53V243.245H492.56L492.498 195.103ZM642.526 243.245H692.556V195.103H642.526V243.245ZM442.53 146.984H392.5V195.126H442.53V146.984ZM442.53 291.349V339.491H492.56V291.349H442.53Z" fill="black"/>
<path d="M942.637 50.7385H892.607V98.8802H942.637V50.7385ZM742.594 98.8576V146.999H792.624V98.8576H742.594ZM842.655 50.7385H792.624V98.8802H842.655V50.7385ZM892.685 243.23V291.372H942.715V243.23H892.685ZM742.594 195.103V243.245H792.624V195.103H742.594ZM1042.66 50.7385H992.628V98.8802H1042.66V50.7385ZM1142.72 50.7385H1092.69V98.8802H1142.72V50.7385ZM842.655 243.23H792.624V291.372H842.655V243.23ZM1142.68 387.58V339.438H1092.65V387.58H1142.68ZM1142.68 291.297V243.155H1092.65V291.297H1142.68ZM1042.66 435.722H1092.69V387.58H1042.66V435.722ZM1142.72 195.103V146.962H1092.69V195.103H1142.72ZM842.655 435.722H892.685V387.58H842.655V435.722ZM742.594 435.722H792.624V387.58H742.594V435.722ZM942.637 435.722H992.667V387.58H942.637V435.722ZM742.594 291.349V339.491H792.624V291.349H742.594ZM992.652 146.984V98.8426H942.621V146.984H992.652ZM942.621 243.268H992.652V195.126H942.621V243.268ZM892.591 339.551V387.693H942.621V339.551H892.591ZM992.652 291.409H1042.68V243.268H992.652V291.409ZM992.652 195.164H1042.68V147.022H992.652V195.164ZM992.652 339.536V387.678H1042.68V339.536H992.652ZM792.624 339.476V387.617H842.655V339.476H792.624ZM892.685 146.984V98.8426H842.655V146.984H892.685ZM1042.71 339.476H1092.74V291.334H1042.71V339.476ZM942.653 195.103V146.962H892.622V195.103H942.653ZM1042.71 98.8576V146.999H1092.74V98.8576H1042.71ZM942.653 291.349V339.491H992.683V291.349H942.653ZM892.622 195.103H842.655V243.245H892.685L892.622 195.103ZM1042.65 243.245H1092.68V195.103H1042.65V243.245ZM842.655 146.984H792.624V195.126H842.655V146.984ZM842.655 291.349V339.491H892.685V291.349H842.655Z" fill="black"/>
<path d="M550.299 0.00976562H500.269V48.1515H550.299V0.00976562ZM350.256 48.1289V96.2706H400.286V48.1289H350.256ZM450.317 0.00976562H400.286V48.1515H450.317V0.00976562ZM500.347 192.501V240.643H550.377V192.501H500.347ZM350.256 144.375V192.516H400.286V144.375H350.256ZM650.32 0.00976562H600.29V48.1515H650.32V0.00976562ZM750.381 0.00976562H700.351V48.1515H750.381V0.00976562ZM450.317 192.501H400.286V240.643H450.317V192.501ZM750.342 336.851V288.709H700.312V336.851H750.342ZM750.342 240.568V192.426H700.312V240.568H750.342ZM650.32 384.993H700.351V336.851H650.32V384.993ZM750.381 144.375V96.233H700.351V144.375H750.381ZM450.317 384.993H500.347V336.851H450.317V384.993ZM350.256 384.993H400.286V336.851H350.256V384.993ZM550.299 384.993H600.329V336.851H550.299V384.993ZM350.256 240.62V288.762H400.286V240.62H350.256ZM600.314 96.2555V48.1138H550.283V96.2555H600.314ZM550.283 192.539H600.314V144.397H550.283V192.539ZM500.253 288.822V336.964H550.283V288.822H500.253ZM600.314 240.681H650.344V192.539H600.314V240.681ZM600.314 144.435H650.344V96.2931H600.314V144.435ZM600.314 288.807V336.949H650.344V288.807H600.314ZM400.286 288.747V336.889H450.317V288.747H400.286ZM500.347 96.2555V48.1138H450.317V96.2555H500.347ZM650.375 288.747H700.405V240.605H650.375V288.747ZM550.315 144.375V96.233H500.284V144.375H550.315ZM650.375 48.1289V96.2706H700.405V48.1289H650.375ZM550.315 240.62V288.762H600.345V240.62H550.315ZM500.284 144.375H450.317V192.516H500.347L500.284 144.375ZM650.313 192.516H700.343V144.375H650.313V192.516ZM450.317 96.2555H400.286V144.397H450.317V96.2555ZM450.317 240.62V288.762H500.347V240.62H450.317Z" fill="black"/>
<path d="M942.756 0.00976562H892.726V48.1515H942.756V0.00976562ZM742.713 48.1289V96.2706H792.743V48.1289H742.713ZM842.774 0.00976562H792.743V48.1515H842.774V0.00976562ZM892.804 192.501V240.643H942.834V192.501H892.804ZM742.713 144.375V192.516H792.743V144.375H742.713ZM1042.78 0.00976562H992.747V48.1515H1042.78V0.00976562ZM1142.84 0.00976562H1092.81V48.1515H1142.84V0.00976562ZM842.774 192.501H792.743V240.643H842.774V192.501ZM1142.8 336.851V288.709H1092.77V336.851H1142.8ZM1142.8 240.568V192.426H1092.77V240.568H1142.8ZM1042.78 384.993H1092.81V336.851H1042.78V384.993ZM1142.84 144.375V96.233H1092.81V144.375H1142.84ZM842.774 384.993H892.804V336.851H842.774V384.993ZM742.713 384.993H792.743V336.851H742.713V384.993ZM942.756 384.993H992.786V336.851H942.756V384.993ZM742.713 240.62V288.762H792.743V240.62H742.713ZM992.771 96.2555V48.1138H942.74V96.2555H992.771ZM942.74 192.539H992.771V144.397H942.74V192.539ZM892.71 288.822V336.964H942.74V288.822H892.71ZM992.771 240.681H1042.8V192.539H992.771V240.681ZM992.771 144.435H1042.8V96.2931H992.771V144.435ZM992.771 288.807V336.949H1042.8V288.807H992.771ZM792.743 288.747V336.889H842.774V288.747H792.743ZM892.804 96.2555V48.1138H842.774V96.2555H892.804ZM1042.83 288.747H1092.86V240.605H1042.83V288.747ZM942.772 144.375V96.233H892.741V144.375H942.772ZM1042.83 48.1289V96.2706H1092.86V48.1289H1042.83ZM942.772 240.62V288.762H992.802V240.62H942.772ZM892.741 144.375H842.774V192.516H892.804L892.741 144.375ZM1042.77 192.516H1092.8V144.375H1042.77V192.516ZM842.774 96.2555H792.743V144.397H842.774V96.2555ZM842.774 240.62V288.762H892.804V240.62H842.774Z" fill="black"/>
<path d="M1342.88 0.00976562H1292.85V48.1515H1342.88V0.00976562ZM1142.84 48.1289V96.2706H1192.87V48.1289H1142.84ZM1242.9 0.00976562H1192.87V48.1515H1242.9V0.00976562ZM1292.93 192.501V240.643H1342.96V192.501H1292.93ZM1142.84 144.375V192.516H1192.87V144.375H1142.84ZM1442.9 0.00976562H1392.87V48.1515H1442.9V0.00976562ZM1542.96 0.00976562H1492.93V48.1515H1542.96V0.00976562ZM1242.9 192.501H1192.87V240.643H1242.9V192.501ZM1542.92 336.851V288.709H1492.89V336.851H1542.92ZM1542.92 240.568V192.426H1492.89V240.568H1542.92ZM1442.9 384.993H1492.93V336.851H1442.9V384.993ZM1542.96 144.375V96.233H1492.93V144.375H1542.96ZM1242.9 384.993H1292.93V336.851H1242.9V384.993ZM1142.84 384.993H1192.87V336.851H1142.84V384.993ZM1342.88 384.993H1392.91V336.851H1342.88V384.993ZM1142.84 240.62V288.762H1192.87V240.62H1142.84ZM1392.9 96.2555V48.1138H1342.87V96.2555H1392.9ZM1342.87 192.539H1392.9V144.397H1342.87V192.539ZM1292.83 288.822V336.964H1342.87V288.822H1292.83ZM1392.9 240.681H1442.93V192.539H1392.9V240.681ZM1392.9 144.435H1442.93V96.2931H1392.9V144.435ZM1392.9 288.807V336.949H1442.93V288.807H1392.9ZM1192.87 288.747V336.889H1242.9V288.747H1192.87ZM1292.93 96.2555V48.1138H1242.9V96.2555H1292.93ZM1442.96 288.747H1492.99V240.605H1442.96V288.747ZM1342.9 144.375V96.233H1292.87V144.375H1342.9ZM1442.96 48.1289V96.2706H1492.99V48.1289H1442.96ZM1342.9 240.62V288.762H1392.93V240.62H1342.9ZM1292.87 144.375H1242.9V192.516H1292.93L1292.87 144.375ZM1442.89 192.516H1492.92V144.375H1442.89V192.516ZM1242.9 96.2555H1192.87V144.397H1242.9V96.2555ZM1242.9 240.62V288.762H1292.93V240.62H1242.9Z" fill="black"/>
<path d="M550.299 50.7385H500.269V98.8802H550.299V50.7385ZM350.256 98.8576V146.999H400.286V98.8576H350.256ZM450.317 50.7385H400.286V98.8802H450.317V50.7385ZM500.347 243.23V291.372H550.377V243.23H500.347ZM350.256 195.103V243.245H400.286V195.103H350.256ZM650.32 50.7385H600.29V98.8802H650.32V50.7385ZM750.381 50.7385H700.351V98.8802H750.381V50.7385ZM450.317 243.23H400.286V291.372H450.317V243.23ZM750.342 387.58V339.438H700.312V387.58H750.342ZM750.342 291.297V243.155H700.312V291.297H750.342ZM650.32 435.722H700.351V387.58H650.32V435.722ZM750.381 195.103V146.962H700.351V195.103H750.381ZM450.317 435.722H500.347V387.58H450.317V435.722ZM350.256 435.722H400.286V387.58H350.256V435.722ZM550.299 435.722H600.329V387.58H550.299V435.722ZM350.256 291.349V339.491H400.286V291.349H350.256ZM600.314 146.984V98.8426H550.283V146.984H600.314ZM550.283 243.268H600.314V195.126H550.283V243.268ZM500.253 339.551V387.693H550.283V339.551H500.253ZM600.314 291.409H650.344V243.268H600.314V291.409ZM600.314 195.164H650.344V147.022H600.314V195.164ZM600.314 339.536V387.678H650.344V339.536H600.314ZM400.286 339.476V387.617H450.317V339.476H400.286ZM500.347 146.984V98.8426H450.317V146.984H500.347ZM650.375 339.476H700.405V291.334H650.375V339.476ZM550.315 195.103V146.962H500.284V195.103H550.315ZM650.375 98.8576V146.999H700.405V98.8576H650.375ZM550.315 291.349V339.491H600.345V291.349H550.315ZM500.284 195.103H450.317V243.245H500.347L500.284 195.103ZM650.313 243.245H700.343V195.103H650.313V243.245ZM450.317 146.984H400.286V195.126H450.317V146.984ZM450.317 291.349V339.491H500.347V291.349H450.317Z" fill="black"/>
<path d="M942.756 50.7385H892.726V98.8802H942.756V50.7385ZM742.713 98.8576V146.999H792.743V98.8576H742.713ZM842.774 50.7385H792.743V98.8802H842.774V50.7385ZM892.804 243.23V291.372H942.834V243.23H892.804ZM742.713 195.103V243.245H792.743V195.103H742.713ZM1042.78 50.7385H992.747V98.8802H1042.78V50.7385ZM1142.84 50.7385H1092.81V98.8802H1142.84V50.7385ZM842.774 243.23H792.743V291.372H842.774V243.23ZM1142.8 387.58V339.438H1092.77V387.58H1142.8ZM1142.8 291.297V243.155H1092.77V291.297H1142.8ZM1042.78 435.722H1092.81V387.58H1042.78V435.722ZM1142.84 195.103V146.962H1092.81V195.103H1142.84ZM842.774 435.722H892.804V387.58H842.774V435.722ZM742.713 435.722H792.743V387.58H742.713V435.722ZM942.756 435.722H992.786V387.58H942.756V435.722ZM742.713 291.349V339.491H792.743V291.349H742.713ZM992.771 146.984V98.8426H942.74V146.984H992.771ZM942.74 243.268H992.771V195.126H942.74V243.268ZM892.71 339.551V387.693H942.74V339.551H892.71ZM992.771 291.409H1042.8V243.268H992.771V291.409ZM992.771 195.164H1042.8V147.022H992.771V195.164ZM992.771 339.536V387.678H1042.8V339.536H992.771ZM792.743 339.476V387.617H842.774V339.476H792.743ZM892.804 146.984V98.8426H842.774V146.984H892.804ZM1042.83 339.476H1092.86V291.334H1042.83V339.476ZM942.772 195.103V146.962H892.741V195.103H942.772ZM1042.83 98.8576V146.999H1092.86V98.8576H1042.83ZM942.772 291.349V339.491H992.802V291.349H942.772ZM892.741 195.103H842.774V243.245H892.804L892.741 195.103ZM1042.77 243.245H1092.8V195.103H1042.77V243.245ZM842.774 146.984H792.743V195.126H842.774V146.984ZM842.774 291.349V339.491H892.804V291.349H842.774Z" fill="black"/>
<path d="M1342.88 50.7385H1292.85V98.8802H1342.88V50.7385ZM1142.84 98.8576V146.999H1192.87V98.8576H1142.84ZM1242.9 50.7385H1192.87V98.8802H1242.9V50.7385ZM1292.93 243.23V291.372H1342.96V243.23H1292.93ZM1142.84 195.103V243.245H1192.87V195.103H1142.84ZM1442.9 50.7385H1392.87V98.8802H1442.9V50.7385ZM1542.96 50.7385H1492.93V98.8802H1542.96V50.7385ZM1242.9 243.23H1192.87V291.372H1242.9V243.23ZM1542.92 387.58V339.438H1492.89V387.58H1542.92ZM1542.92 291.297V243.155H1492.89V291.297H1542.92ZM1442.9 435.722H1492.93V387.58H1442.9V435.722ZM1542.96 195.103V146.962H1492.93V195.103H1542.96ZM1242.9 435.722H1292.93V387.58H1242.9V435.722ZM1142.84 435.722H1192.87V387.58H1142.84V435.722ZM1342.88 435.722H1392.91V387.58H1342.88V435.722ZM1142.84 291.349V339.491H1192.87V291.349H1142.84ZM1392.9 146.984V98.8426H1342.87V146.984H1392.9ZM1342.87 243.268H1392.9V195.126H1342.87V243.268ZM1292.83 339.551V387.693H1342.87V339.551H1292.83ZM1392.9 291.409H1442.93V243.268H1392.9V291.409ZM1392.9 195.164H1442.93V147.022H1392.9V195.164ZM1392.9 339.536V387.678H1442.93V339.536H1392.9ZM1192.87 339.476V387.617H1242.9V339.476H1192.87ZM1292.93 146.984V98.8426H1242.9V146.984H1292.93ZM1442.96 339.476H1492.99V291.334H1442.96V339.476ZM1342.9 195.103V146.962H1292.87V195.103H1342.9ZM1442.96 98.8576V146.999H1492.99V98.8576H1442.96ZM1342.9 291.349V339.491H1392.93V291.349H1342.9ZM1292.87 195.103H1242.9V243.245H1292.93L1292.87 195.103ZM1442.89 243.245H1492.92V195.103H1442.89V243.245ZM1242.9 146.984H1192.87V195.126H1242.9V146.984ZM1242.9 291.349V339.491H1292.93V291.349H1242.9Z" fill="black"/>
<path d="M148.058 157.01H97.524V205.151H148.058V157.01ZM-54 205.129V253.271H-3.46567V205.129H-54ZM47.0687 157.01H-3.46567V205.151H47.0687V157.01ZM97.603 349.501V397.643H148.137V349.501H97.603ZM-54 301.375V349.516H-3.46567V301.375H-54ZM249.088 157.01H198.553V205.151H249.088V157.01ZM350.156 157.01H299.622V205.151H350.156V157.01ZM47.0687 349.501H-3.46567V397.643H47.0687V349.501ZM350.117 493.851V445.709H299.582V493.851H350.117ZM350.117 397.568V349.426H299.582V397.568H350.117ZM249.088 541.993H299.622V493.851H249.088V541.993ZM350.156 301.375V253.233H299.622V301.375H350.156ZM47.0687 541.993H97.603V493.851H47.0687V541.993ZM-54 541.993H-3.46567V493.851H-54V541.993ZM148.058 541.993H198.593V493.851H148.058V541.993ZM-54 397.62V445.762H-3.46567V397.62H-54ZM198.577 253.256V205.114H148.043V253.256H198.577ZM148.043 349.539H198.577V301.397H148.043V349.539ZM97.5083 445.822V493.964H148.043V445.822H97.5083ZM198.577 397.681H249.111V349.539H198.577V397.681ZM198.577 301.435H249.111V253.293H198.577V301.435ZM198.577 445.807V493.949H249.111V445.807H198.577ZM-3.46567 445.747V493.889H47.0687V445.747H-3.46567ZM97.603 253.256V205.114H47.0687V253.256H97.603ZM249.143 445.747H299.677V397.605H249.143V445.747ZM148.074 301.375V253.233H97.5398V301.375H148.074ZM249.143 205.129V253.271H299.677V205.129H249.143ZM148.074 397.62V445.762H198.609V397.62H148.074ZM97.5398 301.375H47.0687V349.516H97.603L97.5398 301.375ZM249.08 349.516H299.614V301.375H249.08V349.516ZM47.0687 253.256H-3.46567V301.397H47.0687V253.256ZM47.0687 397.62V445.762H97.603V397.62H47.0687Z" fill="black"/>
<path d="M544.469 157.01H493.935V205.151H544.469V157.01ZM342.411 205.129V253.271H392.945V205.129H342.411ZM443.48 157.01H392.945V205.151H443.48V157.01ZM494.014 349.501V397.643H544.548V349.501H494.014ZM342.411 301.375V349.516H392.945V301.375H342.411ZM645.499 157.01H594.964V205.151H645.499V157.01ZM746.567 157.01H696.033V205.151H746.567V157.01ZM443.48 349.501H392.945V397.643H443.48V349.501ZM746.528 493.851V445.709H695.993V493.851H746.528ZM746.528 397.568V349.426H695.993V397.568H746.528ZM645.499 541.993H696.033V493.851H645.499V541.993ZM746.567 301.375V253.233H696.033V301.375H746.567ZM443.48 541.993H494.014V493.851H443.48V541.993ZM342.411 541.993H392.945V493.851H342.411V541.993ZM544.469 541.993H595.004V493.851H544.469V541.993ZM342.411 397.62V445.762H392.945V397.62H342.411ZM594.988 253.256V205.114H544.454V253.256H594.988ZM544.454 349.539H594.988V301.397H544.454V349.539ZM493.919 445.822V493.964H544.454V445.822H493.919ZM594.988 397.681H645.522V349.539H594.988V397.681ZM594.988 301.435H645.522V253.293H594.988V301.435ZM594.988 445.807V493.949H645.522V445.807H594.988ZM392.945 445.747V493.889H443.48V445.747H392.945ZM494.014 253.256V205.114H443.48V253.256H494.014ZM645.554 445.747H696.088V397.605H645.554V445.747ZM544.485 301.375V253.233H493.951V301.375H544.485ZM645.554 205.129V253.271H696.088V205.129H645.554ZM544.485 397.62V445.762H595.02V397.62H544.485ZM493.951 301.375H443.48V349.516H494.014L493.951 301.375ZM645.491 349.516H696.025V301.375H645.491V349.516ZM443.48 253.256H392.945V301.397H443.48V253.256ZM443.48 397.62V445.762H494.014V397.62H443.48Z" fill="black"/>
<path d="M948.626 157.01H898.091V205.151H948.626V157.01ZM746.567 205.129V253.271H797.102V205.129H746.567ZM847.636 157.01H797.102V205.151H847.636V157.01ZM898.17 349.501V397.643H948.705V349.501H898.17ZM746.567 301.375V349.516H797.102V301.375H746.567ZM1049.65 157.01H999.121V205.151H1049.65V157.01ZM1150.72 157.01H1100.19V205.151H1150.72V157.01ZM847.636 349.501H797.102V397.643H847.636V349.501ZM1150.68 493.851V445.709H1100.15V493.851H1150.68ZM1150.68 397.568V349.426H1100.15V397.568H1150.68ZM1049.65 541.993H1100.19V493.851H1049.65V541.993ZM1150.72 301.375V253.233H1100.19V301.375H1150.72ZM847.636 541.993H898.17V493.851H847.636V541.993ZM746.567 541.993H797.102V493.851H746.567V541.993ZM948.626 541.993H999.16V493.851H948.626V541.993ZM746.567 397.62V445.762H797.102V397.62H746.567ZM999.144 253.256V205.114H948.61V253.256H999.144ZM948.61 349.539H999.144V301.397H948.61V349.539ZM898.076 445.822V493.964H948.61V445.822H898.076ZM999.144 397.681H1049.68V349.539H999.144V397.681ZM999.144 301.435H1049.68V253.293H999.144V301.435ZM999.144 445.807V493.949H1049.68V445.807H999.144ZM797.102 445.747V493.889H847.636V445.747H797.102ZM898.17 253.256V205.114H847.636V253.256H898.17ZM1049.71 445.747H1100.24V397.605H1049.71V445.747ZM948.642 301.375V253.233H898.107V301.375H948.642ZM1049.71 205.129V253.271H1100.24V205.129H1049.71ZM948.642 397.62V445.762H999.176V397.62H948.642ZM898.107 301.375H847.636V349.516H898.17L898.107 301.375ZM1049.65 349.516H1100.18V301.375H1049.65V349.516ZM847.636 253.256H797.102V301.397H847.636V253.256ZM847.636 397.62V445.762H898.17V397.62H847.636Z" fill="black"/>
<path d="M148.058 207.739H97.524V255.88H148.058V207.739ZM-54 255.858V303.999H-3.46567V255.858H-54ZM47.0687 207.739H-3.46567V255.88H47.0687V207.739ZM97.603 400.23V448.372H148.137V400.23H97.603ZM-54 352.103V400.245H-3.46567V352.103H-54ZM249.088 207.739H198.553V255.88H249.088V207.739ZM350.156 207.739H299.622V255.88H350.156V207.739ZM47.0687 400.23H-3.46567V448.372H47.0687V400.23ZM350.117 544.58V496.438H299.582V544.58H350.117ZM350.117 448.297V400.155H299.582V448.297H350.117ZM249.088 592.722H299.622V544.58H249.088V592.722ZM350.156 352.103V303.962H299.622V352.103H350.156ZM47.0687 592.722H97.603V544.58H47.0687V592.722ZM-54 592.722H-3.46567V544.58H-54V592.722ZM148.058 592.722H198.593V544.58H148.058V592.722ZM-54 448.349V496.491H-3.46567V448.349H-54ZM198.577 303.984V255.843H148.043V303.984H198.577ZM148.043 400.268H198.577V352.126H148.043V400.268ZM97.5083 496.551V544.693H148.043V496.551H97.5083ZM198.577 448.409H249.111V400.268H198.577V448.409ZM198.577 352.164H249.111V304.022H198.577V352.164ZM198.577 496.536V544.678H249.111V496.536H198.577ZM-3.46567 496.476V544.617H47.0687V496.476H-3.46567ZM97.603 303.984V255.843H47.0687V303.984H97.603ZM249.143 496.476H299.677V448.334H249.143V496.476ZM148.074 352.103V303.962H97.5398V352.103H148.074ZM249.143 255.858V303.999H299.677V255.858H249.143ZM148.074 448.349V496.491H198.609V448.349H148.074ZM97.5398 352.103H47.0687V400.245H97.603L97.5398 352.103ZM249.08 400.245H299.614V352.103H249.08V400.245ZM47.0687 303.984H-3.46567V352.126H47.0687V303.984ZM47.0687 448.349V496.491H97.603V448.349H47.0687Z" fill="black"/>
<path d="M544.469 207.739H493.935V255.88H544.469V207.739ZM342.411 255.858V303.999H392.945V255.858H342.411ZM443.48 207.739H392.945V255.88H443.48V207.739ZM494.014 400.23V448.372H544.548V400.23H494.014ZM342.411 352.103V400.245H392.945V352.103H342.411ZM645.499 207.739H594.964V255.88H645.499V207.739ZM746.567 207.739H696.033V255.88H746.567V207.739ZM443.48 400.23H392.945V448.372H443.48V400.23ZM746.528 544.58V496.438H695.993V544.58H746.528ZM746.528 448.297V400.155H695.993V448.297H746.528ZM645.499 592.722H696.033V544.58H645.499V592.722ZM746.567 352.103V303.962H696.033V352.103H746.567ZM443.48 592.722H494.014V544.58H443.48V592.722ZM342.411 592.722H392.945V544.58H342.411V592.722ZM544.469 592.722H595.004V544.58H544.469V592.722ZM342.411 448.349V496.491H392.945V448.349H342.411ZM594.988 303.984V255.843H544.454V303.984H594.988ZM544.454 400.268H594.988V352.126H544.454V400.268ZM493.919 496.551V544.693H544.454V496.551H493.919ZM594.988 448.409H645.522V400.268H594.988V448.409ZM594.988 352.164H645.522V304.022H594.988V352.164ZM594.988 496.536V544.678H645.522V496.536H594.988ZM392.945 496.476V544.617H443.48V496.476H392.945ZM494.014 303.984V255.843H443.48V303.984H494.014ZM645.554 496.476H696.088V448.334H645.554V496.476ZM544.485 352.103V303.962H493.951V352.103H544.485ZM645.554 255.858V303.999H696.088V255.858H645.554ZM544.485 448.349V496.491H595.02V448.349H544.485ZM493.951 352.103H443.48V400.245H494.014L493.951 352.103ZM645.491 400.245H696.025V352.103H645.491V400.245ZM443.48 303.984H392.945V352.126H443.48V303.984ZM443.48 448.349V496.491H494.014V448.349H443.48Z" fill="black"/>
<path d="M948.626 207.739H898.091V255.88H948.626V207.739ZM746.567 255.858V303.999H797.102V255.858H746.567ZM847.636 207.739H797.102V255.88H847.636V207.739ZM898.17 400.23V448.372H948.705V400.23H898.17ZM746.567 352.103V400.245H797.102V352.103H746.567ZM1049.65 207.739H999.121V255.88H1049.65V207.739ZM1150.72 207.739H1100.19V255.88H1150.72V207.739ZM847.636 400.23H797.102V448.372H847.636V400.23ZM1150.68 544.58V496.438H1100.15V544.58H1150.68ZM1150.68 448.297V400.155H1100.15V448.297H1150.68ZM1049.65 592.722H1100.19V544.58H1049.65V592.722ZM1150.72 352.103V303.962H1100.19V352.103H1150.72ZM847.636 592.722H898.17V544.58H847.636V592.722ZM746.567 592.722H797.102V544.58H746.567V592.722ZM948.626 592.722H999.16V544.58H948.626V592.722ZM746.567 448.349V496.491H797.102V448.349H746.567ZM999.144 303.984V255.843H948.61V303.984H999.144ZM948.61 400.268H999.144V352.126H948.61V400.268ZM898.076 496.551V544.693H948.61V496.551H898.076ZM999.144 448.409H1049.68V400.268H999.144V448.409ZM999.144 352.164H1049.68V304.022H999.144V352.164ZM999.144 496.536V544.678H1049.68V496.536H999.144ZM797.102 496.476V544.617H847.636V496.476H797.102ZM898.17 303.984V255.843H847.636V303.984H898.17ZM1049.71 496.476H1100.24V448.334H1049.71V496.476ZM948.642 352.103V303.962H898.107V352.103H948.642ZM1049.71 255.858V303.999H1100.24V255.858H1049.71ZM948.642 448.349V496.491H999.176V448.349H948.642ZM898.107 352.103H847.636V400.245H898.17L898.107 352.103ZM1049.65 400.245H1100.18V352.103H1049.65V400.245ZM847.636 303.984H797.102V352.126H847.636V303.984ZM847.636 448.349V496.491H898.17V448.349H847.636Z" fill="black"/>
<path d="M552.335 157.01H501.8V205.151H552.335V157.01ZM350.276 205.129V253.271H400.811V205.129H350.276ZM451.345 157.01H400.811V205.151H451.345V157.01ZM501.879 349.501V397.643H552.414V349.501H501.879ZM350.276 301.375V349.516H400.811V301.375H350.276ZM653.364 157.01H602.83V205.151H653.364V157.01ZM754.433 157.01H703.898V205.151H754.433V157.01ZM451.345 349.501H400.811V397.643H451.345V349.501ZM754.393 493.851V445.709H703.859V493.851H754.393ZM754.393 397.568V349.426H703.859V397.568H754.393ZM653.364 541.993H703.898V493.851H653.364V541.993ZM754.433 301.375V253.233H703.898V301.375H754.433ZM451.345 541.993H501.879V493.851H451.345V541.993ZM350.276 541.993H400.811V493.851H350.276V541.993ZM552.335 541.993H602.869V493.851H552.335V541.993ZM350.276 397.62V445.762H400.811V397.62H350.276ZM602.853 253.256V205.114H552.319V253.256H602.853ZM552.319 349.539H602.853V301.397H552.319V349.539ZM501.785 445.822V493.964H552.319V445.822H501.785ZM602.853 397.681H653.388V349.539H602.853V397.681ZM602.853 301.435H653.388V253.293H602.853V301.435ZM602.853 445.807V493.949H653.388V445.807H602.853ZM400.811 445.747V493.889H451.345V445.747H400.811ZM501.879 253.256V205.114H451.345V253.256H501.879ZM653.419 445.747H703.954V397.605H653.419V445.747ZM552.351 301.375V253.233H501.816V301.375H552.351ZM653.419 205.129V253.271H703.954V205.129H653.419ZM552.351 397.62V445.762H602.885V397.62H552.351ZM501.816 301.375H451.345V349.516H501.879L501.816 301.375ZM653.356 349.516H703.89V301.375H653.356V349.516ZM451.345 253.256H400.811V301.397H451.345V253.256ZM451.345 397.62V445.762H501.879V397.62H451.345Z" fill="black"/>
<path d="M948.746 157.01H898.212V205.151H948.746V157.01ZM746.688 205.129V253.271H797.222V205.129H746.688ZM847.756 157.01H797.222V205.151H847.756V157.01ZM898.29 349.501V397.643H948.825V349.501H898.29ZM746.688 301.375V349.516H797.222V301.375H746.688ZM1049.78 157.01H999.241V205.151H1049.78V157.01ZM1150.84 157.01H1100.31V205.151H1150.84V157.01ZM847.756 349.501H797.222V397.643H847.756V349.501ZM1150.8 493.851V445.709H1100.27V493.851H1150.8ZM1150.8 397.568V349.426H1100.27V397.568H1150.8ZM1049.78 541.993H1100.31V493.851H1049.78V541.993ZM1150.84 301.375V253.233H1100.31V301.375H1150.84ZM847.756 541.993H898.29V493.851H847.756V541.993ZM746.688 541.993H797.222V493.851H746.688V541.993ZM948.746 541.993H999.28V493.851H948.746V541.993ZM746.688 397.62V445.762H797.222V397.62H746.688ZM999.264 253.256V205.114H948.73V253.256H999.264ZM948.73 349.539H999.264V301.397H948.73V349.539ZM898.196 445.822V493.964H948.73V445.822H898.196ZM999.264 397.681H1049.8V349.539H999.264V397.681ZM999.264 301.435H1049.8V253.293H999.264V301.435ZM999.264 445.807V493.949H1049.8V445.807H999.264ZM797.222 445.747V493.889H847.756V445.747H797.222ZM898.29 253.256V205.114H847.756V253.256H898.29ZM1049.83 445.747H1100.36V397.605H1049.83V445.747ZM948.762 301.375V253.233H898.227V301.375H948.762ZM1049.83 205.129V253.271H1100.36V205.129H1049.83ZM948.762 397.62V445.762H999.296V397.62H948.762ZM898.227 301.375H847.756V349.516H898.29L898.227 301.375ZM1049.77 349.516H1100.3V301.375H1049.77V349.516ZM847.756 253.256H797.222V301.397H847.756V253.256ZM847.756 397.62V445.762H898.29V397.62H847.756Z" fill="black"/>
<path d="M1352.9 157.01H1302.37V205.151H1352.9V157.01ZM1150.84 205.129V253.271H1201.38V205.129H1150.84ZM1251.91 157.01H1201.38V205.151H1251.91V157.01ZM1302.45 349.501V397.643H1352.98V349.501H1302.45ZM1150.84 301.375V349.516H1201.38V301.375H1150.84ZM1453.93 157.01H1403.4V205.151H1453.93V157.01ZM1555 157.01H1504.47V205.151H1555V157.01ZM1251.91 349.501H1201.38V397.643H1251.91V349.501ZM1554.96 493.851V445.709H1504.43V493.851H1554.96ZM1554.96 397.568V349.426H1504.43V397.568H1554.96ZM1453.93 541.993H1504.47V493.851H1453.93V541.993ZM1555 301.375V253.233H1504.47V301.375H1555ZM1251.91 541.993H1302.45V493.851H1251.91V541.993ZM1150.84 541.993H1201.38V493.851H1150.84V541.993ZM1352.9 541.993H1403.44V493.851H1352.9V541.993ZM1150.84 397.62V445.762H1201.38V397.62H1150.84ZM1403.42 253.256V205.114H1352.89V253.256H1403.42ZM1352.89 349.539H1403.42V301.397H1352.89V349.539ZM1302.35 445.822V493.964H1352.89V445.822H1302.35ZM1403.42 397.681H1453.95V349.539H1403.42V397.681ZM1403.42 301.435H1453.95V253.293H1403.42V301.435ZM1403.42 445.807V493.949H1453.95V445.807H1403.42ZM1201.38 445.747V493.889H1251.91V445.747H1201.38ZM1302.45 253.256V205.114H1251.91V253.256H1302.45ZM1453.99 445.747H1504.52V397.605H1453.99V445.747ZM1352.92 301.375V253.233H1302.38V301.375H1352.92ZM1453.99 205.129V253.271H1504.52V205.129H1453.99ZM1352.92 397.62V445.762H1403.45V397.62H1352.92ZM1302.38 301.375H1251.91V349.516H1302.45L1302.38 301.375ZM1453.92 349.516H1504.46V301.375H1453.92V349.516ZM1251.91 253.256H1201.38V301.397H1251.91V253.256ZM1251.91 397.62V445.762H1302.45V397.62H1251.91Z" fill="black"/>
<path d="M552.335 207.739H501.8V255.88H552.335V207.739ZM350.276 255.858V303.999H400.811V255.858H350.276ZM451.345 207.739H400.811V255.88H451.345V207.739ZM501.879 400.23V448.372H552.414V400.23H501.879ZM350.276 352.103V400.245H400.811V352.103H350.276ZM653.364 207.739H602.83V255.88H653.364V207.739ZM754.433 207.739H703.898V255.88H754.433V207.739ZM451.345 400.23H400.811V448.372H451.345V400.23ZM754.393 544.58V496.438H703.859V544.58H754.393ZM754.393 448.297V400.155H703.859V448.297H754.393ZM653.364 592.722H703.898V544.58H653.364V592.722ZM754.433 352.103V303.962H703.898V352.103H754.433ZM451.345 592.722H501.879V544.58H451.345V592.722ZM350.276 592.722H400.811V544.58H350.276V592.722ZM552.335 592.722H602.869V544.58H552.335V592.722ZM350.276 448.349V496.491H400.811V448.349H350.276ZM602.853 303.984V255.843H552.319V303.984H602.853ZM552.319 400.268H602.853V352.126H552.319V400.268ZM501.785 496.551V544.693H552.319V496.551H501.785ZM602.853 448.409H653.388V400.268H602.853V448.409ZM602.853 352.164H653.388V304.022H602.853V352.164ZM602.853 496.536V544.678H653.388V496.536H602.853ZM400.811 496.476V544.617H451.345V496.476H400.811ZM501.879 303.984V255.843H451.345V303.984H501.879ZM653.419 496.476H703.954V448.334H653.419V496.476ZM552.351 352.103V303.962H501.816V352.103H552.351ZM653.419 255.858V303.999H703.954V255.858H653.419ZM552.351 448.349V496.491H602.885V448.349H552.351ZM501.816 352.103H451.345V400.245H501.879L501.816 352.103ZM653.356 400.245H703.89V352.103H653.356V400.245ZM451.345 303.984H400.811V352.126H451.345V303.984ZM451.345 448.349V496.491H501.879V448.349H451.345Z" fill="black"/>
<path d="M948.746 207.739H898.212V255.88H948.746V207.739ZM746.688 255.858V303.999H797.222V255.858H746.688ZM847.756 207.739H797.222V255.88H847.756V207.739ZM898.29 400.23V448.372H948.825V400.23H898.29ZM746.688 352.103V400.245H797.222V352.103H746.688ZM1049.78 207.739H999.241V255.88H1049.78V207.739ZM1150.84 207.739H1100.31V255.88H1150.84V207.739ZM847.756 400.23H797.222V448.372H847.756V400.23ZM1150.8 544.58V496.438H1100.27V544.58H1150.8ZM1150.8 448.297V400.155H1100.27V448.297H1150.8ZM1049.78 592.722H1100.31V544.58H1049.78V592.722ZM1150.84 352.103V303.962H1100.31V352.103H1150.84ZM847.756 592.722H898.29V544.58H847.756V592.722ZM746.688 592.722H797.222V544.58H746.688V592.722ZM948.746 592.722H999.28V544.58H948.746V592.722ZM746.688 448.349V496.491H797.222V448.349H746.688ZM999.264 303.984V255.843H948.73V303.984H999.264ZM948.73 400.268H999.264V352.126H948.73V400.268ZM898.196 496.551V544.693H948.73V496.551H898.196ZM999.264 448.409H1049.8V400.268H999.264V448.409ZM999.264 352.164H1049.8V304.022H999.264V352.164ZM999.264 496.536V544.678H1049.8V496.536H999.264ZM797.222 496.476V544.617H847.756V496.476H797.222ZM898.29 303.984V255.843H847.756V303.984H898.29ZM1049.83 496.476H1100.36V448.334H1049.83V496.476ZM948.762 352.103V303.962H898.227V352.103H948.762ZM1049.83 255.858V303.999H1100.36V255.858H1049.83ZM948.762 448.349V496.491H999.296V448.349H948.762ZM898.227 352.103H847.756V400.245H898.29L898.227 352.103ZM1049.77 400.245H1100.3V352.103H1049.77V400.245ZM847.756 303.984H797.222V352.126H847.756V303.984ZM847.756 448.349V496.491H898.29V448.349H847.756Z" fill="black"/>
<path d="M1352.9 207.739H1302.37V255.88H1352.9V207.739ZM1150.84 255.858V303.999H1201.38V255.858H1150.84ZM1251.91 207.739H1201.38V255.88H1251.91V207.739ZM1302.45 400.23V448.372H1352.98V400.23H1302.45ZM1150.84 352.103V400.245H1201.38V352.103H1150.84ZM1453.93 207.739H1403.4V255.88H1453.93V207.739ZM1555 207.739H1504.47V255.88H1555V207.739ZM1251.91 400.23H1201.38V448.372H1251.91V400.23ZM1554.96 544.58V496.438H1504.43V544.58H1554.96ZM1554.96 448.297V400.155H1504.43V448.297H1554.96ZM1453.93 592.722H1504.47V544.58H1453.93V592.722ZM1555 352.103V303.962H1504.47V352.103H1555ZM1251.91 592.722H1302.45V544.58H1251.91V592.722ZM1150.84 592.722H1201.38V544.58H1150.84V592.722ZM1352.9 592.722H1403.44V544.58H1352.9V592.722ZM1150.84 448.349V496.491H1201.38V448.349H1150.84ZM1403.42 303.984V255.843H1352.89V303.984H1403.42ZM1352.89 400.268H1403.42V352.126H1352.89V400.268ZM1302.35 496.551V544.693H1352.89V496.551H1302.35ZM1403.42 448.409H1453.95V400.268H1403.42V448.409ZM1403.42 352.164H1453.95V304.022H1403.42V352.164ZM1403.42 496.536V544.678H1453.95V496.536H1403.42ZM1201.38 496.476V544.617H1251.91V496.476H1201.38ZM1302.45 303.984V255.843H1251.91V303.984H1302.45ZM1453.99 496.476H1504.52V448.334H1453.99V496.476ZM1352.92 352.103V303.962H1302.38V352.103H1352.92ZM1453.99 255.858V303.999H1504.52V255.858H1453.99ZM1352.92 448.349V496.491H1403.45V448.349H1352.92ZM1302.38 352.103H1251.91V400.245H1302.45L1302.38 352.103ZM1453.92 400.245H1504.46V352.103H1453.92V400.245ZM1251.91 303.984H1201.38V352.126H1251.91V303.984ZM1251.91 448.349V496.491H1302.45V448.349H1251.91Z" fill="black"/>
</svg>
