<svg width="44" height="44" viewBox="0 0 44 44" fill="none" xmlns="http://www.w3.org/2000/svg">
<path d="M28.7696 0H15.3311C3.05772 0 0.138306 2.92126 0.138306 15.1804V28.6274C0.138306 40.9063 3.03582 43.8298 15.3092 43.8298H28.7477C41.0189 43.8298 43.9405 40.9305 43.9405 28.6493V15.2024C43.9405 2.92126 41.0429 0 28.7696 0ZM35.4998 31.2726H32.3044C31.0955 31.2726 30.7319 30.293 28.5637 28.1234C26.6715 26.2979 25.8721 26.07 25.3924 26.07C24.731 26.07 24.5492 26.2519 24.5492 27.1657V30.0409C24.5492 30.8189 24.2974 31.2747 22.2672 31.2747C20.2968 31.1423 18.3861 30.5433 16.6924 29.5271C14.9988 28.5109 13.5706 27.1067 12.5256 25.43C10.0445 22.34 8.31823 18.7134 7.48393 14.8386C7.48393 14.3586 7.66571 13.9247 8.57898 13.9247H11.7722C12.5934 13.9247 12.8891 14.2907 13.2111 15.1344C14.7617 19.7015 17.4073 23.6725 18.4805 23.6725C18.8922 23.6725 19.0718 23.4906 19.0718 22.4628V17.7598C18.936 15.6144 17.7971 15.4325 17.7971 14.6567C17.8118 14.4521 17.9055 14.2612 18.0584 14.1245C18.2113 13.9879 18.4114 13.9162 18.6162 13.9247H23.636C24.3215 13.9247 24.5492 14.2666 24.5492 15.0884V21.435C24.5492 22.1209 24.8449 22.3488 25.0508 22.3488C25.4625 22.3488 25.7801 22.1209 26.5335 21.367C28.1517 19.3924 29.4738 17.1924 30.4582 14.8364C30.5588 14.5534 30.7492 14.3111 31.0003 14.1465C31.2514 13.9819 31.5494 13.904 31.8489 13.9247H35.0442C36.0013 13.9247 36.205 14.4047 36.0013 15.0884C34.8394 17.6928 33.4018 20.1651 31.7131 22.4628C31.3692 22.9887 31.2313 23.2627 31.7131 23.8785C32.0307 24.3584 33.1498 25.2942 33.9032 26.1839C34.998 27.2767 35.9072 28.541 36.5948 29.927C36.8686 30.8167 36.4109 31.2726 35.4998 31.2726Z" fill="white"/>
</svg>
