<svg width="44" height="43" viewBox="0 0 44 43" fill="none" xmlns="http://www.w3.org/2000/svg">
<path d="M22.0733 0C19.1972 0 16.3493 0.566846 13.6921 1.66817C11.035 2.7695 8.62062 4.38374 6.58692 6.41872C2.47967 10.5286 0.172241 16.1027 0.172241 21.9149C0.172241 31.6013 6.45785 39.8194 15.1526 42.734C16.2476 42.9094 16.598 42.23 16.598 41.6383V37.9347C10.5315 39.2496 9.23929 34.9981 9.23929 34.9981C8.23184 32.456 6.80827 31.7766 6.80827 31.7766C4.81527 30.4179 6.96157 30.4617 6.96157 30.4617C9.15168 30.6151 10.3124 32.7189 10.3124 32.7189C12.2178 36.05 15.4373 35.0638 16.6857 34.5379C16.8828 33.1134 17.4522 32.1491 18.0654 31.6013C13.2034 31.0534 8.10043 29.1687 8.10043 20.8191C8.10043 18.3866 8.93267 16.4362 10.3562 14.8802C10.1372 14.3323 9.37069 12.0532 10.5753 9.09468C10.5753 9.09468 12.4149 8.50298 16.598 11.33C18.3282 10.8479 20.2117 10.6068 22.0733 10.6068C23.9349 10.6068 25.8184 10.8479 27.5486 11.33C31.7317 8.50298 33.5714 9.09468 33.5714 9.09468C34.7759 12.0532 34.0094 14.3323 33.7904 14.8802C35.214 16.4362 36.0462 18.3866 36.0462 20.8191C36.0462 29.1906 30.9214 31.0315 26.0374 31.5794C26.8259 32.2587 27.5486 33.5955 27.5486 35.6336V41.6383C27.5486 42.23 27.899 42.9313 29.016 42.734C37.7107 39.7974 43.9744 31.6013 43.9744 21.9149C43.9744 19.037 43.4079 16.1873 42.3073 13.5284C41.2066 10.8696 39.5934 8.45371 37.5597 6.41872C35.526 4.38374 33.1117 2.7695 30.4545 1.66817C27.7973 0.566846 24.9494 0 22.0733 0Z" fill="white"/>
</svg>
