<svg width="44" height="44" viewBox="0 0 44 44" fill="none" xmlns="http://www.w3.org/2000/svg">
<path d="M22.0054 0C9.91605 0 0.10437 9.81787 0.10437 21.9149C0.10437 34.0119 9.91605 43.8298 22.0054 43.8298C34.0948 43.8298 43.9065 34.0119 43.9065 21.9149C43.9065 9.81787 34.0948 0 22.0054 0ZM32.1675 14.9021C31.839 18.3647 30.4155 26.78 29.6927 30.6589C29.3861 32.3026 28.7729 32.8504 28.2035 32.9162C26.9332 33.0257 25.9695 32.0834 24.7431 31.2726C22.8158 30.0015 21.7207 29.2126 19.8591 27.9853C17.6909 26.5609 19.0926 25.7719 20.341 24.5009C20.6695 24.1721 26.2762 19.066 26.3857 18.6057C26.4009 18.536 26.3988 18.4637 26.3798 18.3949C26.3607 18.3262 26.3251 18.2631 26.2762 18.2113C26.1447 18.1017 25.9695 18.1455 25.8162 18.1674C25.6191 18.2113 22.553 20.2494 16.574 24.2817C15.6979 24.8734 14.9095 25.1802 14.2087 25.1583C13.4202 25.1364 11.931 24.72 10.814 24.3474C9.43423 23.9091 8.36108 23.6681 8.44868 22.9011C8.49248 22.5066 9.04001 22.1121 10.0694 21.6957C16.4645 18.9126 20.7133 17.0717 22.8377 16.1951C28.9262 13.653 30.1745 13.2147 31.0068 13.2147C31.182 13.2147 31.5981 13.2585 31.8609 13.4777C32.0799 13.653 32.1456 13.894 32.1675 14.0694C32.1456 14.2009 32.1894 14.5953 32.1675 14.9021Z" fill="white"/>
</svg>
