<svg width="1440" height="909" viewBox="0 0 1440 909" fill="none" xmlns="http://www.w3.org/2000/svg">
<path d="M150.055 316H100.025V364.142H150.055V316ZM-49.9875 364.119V412.261H0.0427322V364.119H-49.9875ZM50.073 316H0.0427322V364.142H50.073V316ZM100.103 508.492V556.633H150.133V508.492H100.103ZM-49.9875 460.365V508.507H0.0427322V460.365H-49.9875ZM250.077 316H200.046V364.142H250.077V316ZM350.137 316H300.107V364.142H350.137V316ZM50.073 508.492H0.0427322V556.633H50.073V508.492ZM350.098 652.841V604.7H300.068V652.841H350.098ZM350.098 556.558V508.416H300.068V556.558H350.098ZM250.077 700.983H300.107V652.841H250.077V700.983ZM350.137 460.365V412.223H300.107V460.365H350.137ZM50.073 700.983H100.103V652.841H50.073V700.983ZM-49.9875 700.983H0.0427322V652.841H-49.9875V700.983ZM150.055 700.983H200.086V652.841H150.055V700.983ZM-49.9875 556.611V604.752H0.0427322V556.611H-49.9875ZM200.07 412.246V364.104H150.04V412.246H200.07ZM150.04 508.529H200.07V460.387H150.04V508.529ZM100.009 604.812V652.954H150.04V604.812H100.009ZM200.07 556.671H250.1V508.529H200.07V556.671ZM200.07 460.425H250.1V412.283H200.07V460.425ZM200.07 604.797V652.939H250.1V604.797H200.07ZM0.0427322 604.737V652.879H50.073V604.737H0.0427322ZM100.103 412.246V364.104H50.073V412.246H100.103ZM250.131 604.737H300.162V556.596H250.131V604.737ZM150.071 460.365V412.223H100.041V460.365H150.071ZM250.131 364.119V412.261H300.162V364.119H250.131ZM150.071 556.611V604.752H200.101V556.611H150.071ZM100.041 460.365H50.073V508.507H100.103L100.041 460.365ZM250.069 508.507H300.099V460.365H250.069V508.507ZM50.073 412.246H0.0427322V460.387H50.073V412.246ZM50.073 556.611V604.752H100.103V556.611H50.073Z" fill="black"/>
<path d="M542.512 316H492.482V364.142H542.512V316ZM342.469 364.119V412.261H392.5V364.119H342.469ZM442.53 316H392.5V364.142H442.53V316ZM492.56 508.492V556.633H542.59V508.492H492.56ZM342.469 460.365V508.507H392.5V460.365H342.469ZM642.534 316H592.503V364.142H642.534V316ZM742.594 316H692.564V364.142H742.594V316ZM442.53 508.492H392.5V556.633H442.53V508.492ZM742.555 652.841V604.7H692.525V652.841H742.555ZM742.555 556.558V508.416H692.525V556.558H742.555ZM642.534 700.983H692.564V652.841H642.534V700.983ZM742.594 460.365V412.223H692.564V460.365H742.594ZM442.53 700.983H492.56V652.841H442.53V700.983ZM342.469 700.983H392.5V652.841H342.469V700.983ZM542.512 700.983H592.542V652.841H542.512V700.983ZM342.469 556.611V604.752H392.5V556.611H342.469ZM592.527 412.246V364.104H542.497V412.246H592.527ZM542.497 508.529H592.527V460.387H542.497V508.529ZM492.466 604.812V652.954H542.497V604.812H492.466ZM592.527 556.671H642.557V508.529H592.527V556.671ZM592.527 460.425H642.557V412.283H592.527V460.425ZM592.527 604.797V652.939H642.557V604.797H592.527ZM392.5 604.737V652.879H442.53V604.737H392.5ZM492.56 412.246V364.104H442.53V412.246H492.56ZM642.588 604.737H692.619V556.596H642.588V604.737ZM542.528 460.365V412.223H492.498V460.365H542.528ZM642.588 364.119V412.261H692.619V364.119H642.588ZM542.528 556.611V604.752H592.558V556.611H542.528ZM492.498 460.365H442.53V508.507H492.56L492.498 460.365ZM642.526 508.507H692.556V460.365H642.526V508.507ZM442.53 412.246H392.5V460.387H442.53V412.246ZM442.53 556.611V604.752H492.56V556.611H442.53Z" fill="black"/>
<path d="M942.637 316H892.607V364.142H942.637V316ZM742.594 364.119V412.261H792.624V364.119H742.594ZM842.655 316H792.624V364.142H842.655V316ZM892.685 508.492V556.633H942.715V508.492H892.685ZM742.594 460.365V508.507H792.624V460.365H742.594ZM1042.66 316H992.628V364.142H1042.66V316ZM1142.72 316H1092.69V364.142H1142.72V316ZM842.655 508.492H792.624V556.633H842.655V508.492ZM1142.68 652.841V604.7H1092.65V652.841H1142.68ZM1142.68 556.558V508.416H1092.65V556.558H1142.68ZM1042.66 700.983H1092.69V652.841H1042.66V700.983ZM1142.72 460.365V412.223H1092.69V460.365H1142.72ZM842.655 700.983H892.685V652.841H842.655V700.983ZM742.594 700.983H792.624V652.841H742.594V700.983ZM942.637 700.983H992.667V652.841H942.637V700.983ZM742.594 556.611V604.752H792.624V556.611H742.594ZM992.652 412.246V364.104H942.621V412.246H992.652ZM942.621 508.529H992.652V460.387H942.621V508.529ZM892.591 604.812V652.954H942.621V604.812H892.591ZM992.652 556.671H1042.68V508.529H992.652V556.671ZM992.652 460.425H1042.68V412.283H992.652V460.425ZM992.652 604.797V652.939H1042.68V604.797H992.652ZM792.624 604.737V652.879H842.655V604.737H792.624ZM892.685 412.246V364.104H842.655V412.246H892.685ZM1042.71 604.737H1092.74V556.596H1042.71V604.737ZM942.653 460.365V412.223H892.622V460.365H942.653ZM1042.71 364.119V412.261H1092.74V364.119H1042.71ZM942.653 556.611V604.752H992.683V556.611H942.653ZM892.622 460.365H842.655V508.507H892.685L892.622 460.365ZM1042.65 508.507H1092.68V460.365H1042.65V508.507ZM842.655 412.246H792.624V460.387H842.655V412.246ZM842.655 556.611V604.752H892.685V556.611H842.655Z" fill="black"/>
<path d="M150.055 366.729H100.025V414.87H150.055V366.729ZM-49.9875 414.848V462.99H0.0427322V414.848H-49.9875ZM50.073 366.729H0.0427322V414.87H50.073V366.729ZM100.103 559.22V607.362H150.133V559.22H100.103ZM-49.9875 511.094V559.235H0.0427322V511.094H-49.9875ZM250.077 366.729H200.046V414.87H250.077V366.729ZM350.137 366.729H300.107V414.87H350.137V366.729ZM50.073 559.22H0.0427322V607.362H50.073V559.22ZM350.098 703.57V655.428H300.068V703.57H350.098ZM350.098 607.287V559.145H300.068V607.287H350.098ZM250.077 751.712H300.107V703.57H250.077V751.712ZM350.137 511.094V462.952H300.107V511.094H350.137ZM50.073 751.712H100.103V703.57H50.073V751.712ZM-49.9875 751.712H0.0427322V703.57H-49.9875V751.712ZM150.055 751.712H200.086V703.57H150.055V751.712ZM-49.9875 607.339V655.481H0.0427322V607.339H-49.9875ZM200.07 462.975V414.833H150.04V462.975H200.07ZM150.04 559.258H200.07V511.116H150.04V559.258ZM100.009 655.541V703.683H150.04V655.541H100.009ZM200.07 607.4H250.1V559.258H200.07V607.4ZM200.07 511.154H250.1V463.012H200.07V511.154ZM200.07 655.526V703.668H250.1V655.526H200.07ZM0.0427322 655.466V703.608H50.073V655.466H0.0427322ZM100.103 462.975V414.833H50.073V462.975H100.103ZM250.131 655.466H300.162V607.324H250.131V655.466ZM150.071 511.094V462.952H100.041V511.094H150.071ZM250.131 414.848V462.99H300.162V414.848H250.131ZM150.071 607.339V655.481H200.101V607.339H150.071ZM100.041 511.094H50.073V559.235H100.103L100.041 511.094ZM250.069 559.235H300.099V511.094H250.069V559.235ZM50.073 462.975H0.0427322V511.116H50.073V462.975ZM50.073 607.339V655.481H100.103V607.339H50.073Z" fill="black"/>
<path d="M542.512 366.729H492.482V414.87H542.512V366.729ZM342.469 414.848V462.99H392.5V414.848H342.469ZM442.53 366.729H392.5V414.87H442.53V366.729ZM492.56 559.22V607.362H542.59V559.22H492.56ZM342.469 511.094V559.235H392.5V511.094H342.469ZM642.534 366.729H592.503V414.87H642.534V366.729ZM742.594 366.729H692.564V414.87H742.594V366.729ZM442.53 559.22H392.5V607.362H442.53V559.22ZM742.555 703.57V655.428H692.525V703.57H742.555ZM742.555 607.287V559.145H692.525V607.287H742.555ZM642.534 751.712H692.564V703.57H642.534V751.712ZM742.594 511.094V462.952H692.564V511.094H742.594ZM442.53 751.712H492.56V703.57H442.53V751.712ZM342.469 751.712H392.5V703.57H342.469V751.712ZM542.512 751.712H592.542V703.57H542.512V751.712ZM342.469 607.339V655.481H392.5V607.339H342.469ZM592.527 462.975V414.833H542.497V462.975H592.527ZM542.497 559.258H592.527V511.116H542.497V559.258ZM492.466 655.541V703.683H542.497V655.541H492.466ZM592.527 607.4H642.557V559.258H592.527V607.4ZM592.527 511.154H642.557V463.012H592.527V511.154ZM592.527 655.526V703.668H642.557V655.526H592.527ZM392.5 655.466V703.608H442.53V655.466H392.5ZM492.56 462.975V414.833H442.53V462.975H492.56ZM642.588 655.466H692.619V607.324H642.588V655.466ZM542.528 511.094V462.952H492.498V511.094H542.528ZM642.588 414.848V462.99H692.619V414.848H642.588ZM542.528 607.339V655.481H592.558V607.339H542.528ZM492.498 511.094H442.53V559.235H492.56L492.498 511.094ZM642.526 559.235H692.556V511.094H642.526V559.235ZM442.53 462.975H392.5V511.116H442.53V462.975ZM442.53 607.339V655.481H492.56V607.339H442.53Z" fill="black"/>
<path d="M942.637 366.729H892.607V414.87H942.637V366.729ZM742.594 414.848V462.99H792.624V414.848H742.594ZM842.655 366.729H792.624V414.87H842.655V366.729ZM892.685 559.22V607.362H942.715V559.22H892.685ZM742.594 511.094V559.235H792.624V511.094H742.594ZM1042.66 366.729H992.628V414.87H1042.66V366.729ZM1142.72 366.729H1092.69V414.87H1142.72V366.729ZM842.655 559.22H792.624V607.362H842.655V559.22ZM1142.68 703.57V655.428H1092.65V703.57H1142.68ZM1142.68 607.287V559.145H1092.65V607.287H1142.68ZM1042.66 751.712H1092.69V703.57H1042.66V751.712ZM1142.72 511.094V462.952H1092.69V511.094H1142.72ZM842.655 751.712H892.685V703.57H842.655V751.712ZM742.594 751.712H792.624V703.57H742.594V751.712ZM942.637 751.712H992.667V703.57H942.637V751.712ZM742.594 607.339V655.481H792.624V607.339H742.594ZM992.652 462.975V414.833H942.621V462.975H992.652ZM942.621 559.258H992.652V511.116H942.621V559.258ZM892.591 655.541V703.683H942.621V655.541H892.591ZM992.652 607.4H1042.68V559.258H992.652V607.4ZM992.652 511.154H1042.68V463.012H992.652V511.154ZM992.652 655.526V703.668H1042.68V655.526H992.652ZM792.624 655.466V703.608H842.655V655.466H792.624ZM892.685 462.975V414.833H842.655V462.975H892.685ZM1042.71 655.466H1092.74V607.324H1042.71V655.466ZM942.653 511.094V462.952H892.622V511.094H942.653ZM1042.71 414.848V462.99H1092.74V414.848H1042.71ZM942.653 607.339V655.481H992.683V607.339H942.653ZM892.622 511.094H842.655V559.235H892.685L892.622 511.094ZM1042.65 559.235H1092.68V511.094H1042.65V559.235ZM842.655 462.975H792.624V511.116H842.655V462.975ZM842.655 607.339V655.481H892.685V607.339H842.655Z" fill="black"/>
<path d="M550.299 316H500.269V364.142H550.299V316ZM350.256 364.119V412.261H400.286V364.119H350.256ZM450.317 316H400.286V364.142H450.317V316ZM500.347 508.492V556.633H550.377V508.492H500.347ZM350.256 460.365V508.507H400.286V460.365H350.256ZM650.32 316H600.29V364.142H650.32V316ZM750.381 316H700.351V364.142H750.381V316ZM450.317 508.492H400.286V556.633H450.317V508.492ZM750.342 652.841V604.7H700.312V652.841H750.342ZM750.342 556.558V508.416H700.312V556.558H750.342ZM650.32 700.983H700.351V652.841H650.32V700.983ZM750.381 460.365V412.223H700.351V460.365H750.381ZM450.317 700.983H500.347V652.841H450.317V700.983ZM350.256 700.983H400.286V652.841H350.256V700.983ZM550.299 700.983H600.329V652.841H550.299V700.983ZM350.256 556.611V604.752H400.286V556.611H350.256ZM600.314 412.246V364.104H550.283V412.246H600.314ZM550.283 508.529H600.314V460.387H550.283V508.529ZM500.253 604.812V652.954H550.283V604.812H500.253ZM600.314 556.671H650.344V508.529H600.314V556.671ZM600.314 460.425H650.344V412.283H600.314V460.425ZM600.314 604.797V652.939H650.344V604.797H600.314ZM400.286 604.737V652.879H450.317V604.737H400.286ZM500.347 412.246V364.104H450.317V412.246H500.347ZM650.375 604.737H700.405V556.596H650.375V604.737ZM550.315 460.365V412.223H500.284V460.365H550.315ZM650.375 364.119V412.261H700.405V364.119H650.375ZM550.315 556.611V604.752H600.345V556.611H550.315ZM500.284 460.365H450.317V508.507H500.347L500.284 460.365ZM650.313 508.507H700.343V460.365H650.313V508.507ZM450.317 412.246H400.286V460.387H450.317V412.246ZM450.317 556.611V604.752H500.347V556.611H450.317Z" fill="black"/>
<path d="M942.756 316H892.726V364.142H942.756V316ZM742.713 364.119V412.261H792.743V364.119H742.713ZM842.774 316H792.743V364.142H842.774V316ZM892.804 508.492V556.633H942.834V508.492H892.804ZM742.713 460.365V508.507H792.743V460.365H742.713ZM1042.78 316H992.747V364.142H1042.78V316ZM1142.84 316H1092.81V364.142H1142.84V316ZM842.774 508.492H792.743V556.633H842.774V508.492ZM1142.8 652.841V604.7H1092.77V652.841H1142.8ZM1142.8 556.558V508.416H1092.77V556.558H1142.8ZM1042.78 700.983H1092.81V652.841H1042.78V700.983ZM1142.84 460.365V412.223H1092.81V460.365H1142.84ZM842.774 700.983H892.804V652.841H842.774V700.983ZM742.713 700.983H792.743V652.841H742.713V700.983ZM942.756 700.983H992.786V652.841H942.756V700.983ZM742.713 556.611V604.752H792.743V556.611H742.713ZM992.771 412.246V364.104H942.74V412.246H992.771ZM942.74 508.529H992.771V460.387H942.74V508.529ZM892.71 604.812V652.954H942.74V604.812H892.71ZM992.771 556.671H1042.8V508.529H992.771V556.671ZM992.771 460.425H1042.8V412.283H992.771V460.425ZM992.771 604.797V652.939H1042.8V604.797H992.771ZM792.743 604.737V652.879H842.774V604.737H792.743ZM892.804 412.246V364.104H842.774V412.246H892.804ZM1042.83 604.737H1092.86V556.596H1042.83V604.737ZM942.772 460.365V412.223H892.741V460.365H942.772ZM1042.83 364.119V412.261H1092.86V364.119H1042.83ZM942.772 556.611V604.752H992.802V556.611H942.772ZM892.741 460.365H842.774V508.507H892.804L892.741 460.365ZM1042.77 508.507H1092.8V460.365H1042.77V508.507ZM842.774 412.246H792.743V460.387H842.774V412.246ZM842.774 556.611V604.752H892.804V556.611H842.774Z" fill="black"/>
<path d="M1342.88 316H1292.85V364.142H1342.88V316ZM1142.84 364.119V412.261H1192.87V364.119H1142.84ZM1242.9 316H1192.87V364.142H1242.9V316ZM1292.93 508.492V556.633H1342.96V508.492H1292.93ZM1142.84 460.365V508.507H1192.87V460.365H1142.84ZM1442.9 316H1392.87V364.142H1442.9V316ZM1542.96 316H1492.93V364.142H1542.96V316ZM1242.9 508.492H1192.87V556.633H1242.9V508.492ZM1542.92 652.841V604.7H1492.89V652.841H1542.92ZM1542.92 556.558V508.416H1492.89V556.558H1542.92ZM1442.9 700.983H1492.93V652.841H1442.9V700.983ZM1542.96 460.365V412.223H1492.93V460.365H1542.96ZM1242.9 700.983H1292.93V652.841H1242.9V700.983ZM1142.84 700.983H1192.87V652.841H1142.84V700.983ZM1342.88 700.983H1392.91V652.841H1342.88V700.983ZM1142.84 556.611V604.752H1192.87V556.611H1142.84ZM1392.9 412.246V364.104H1342.87V412.246H1392.9ZM1342.87 508.529H1392.9V460.387H1342.87V508.529ZM1292.83 604.812V652.954H1342.87V604.812H1292.83ZM1392.9 556.671H1442.93V508.529H1392.9V556.671ZM1392.9 460.425H1442.93V412.283H1392.9V460.425ZM1392.9 604.797V652.939H1442.93V604.797H1392.9ZM1192.87 604.737V652.879H1242.9V604.737H1192.87ZM1292.93 412.246V364.104H1242.9V412.246H1292.93ZM1442.96 604.737H1492.99V556.596H1442.96V604.737ZM1342.9 460.365V412.223H1292.87V460.365H1342.9ZM1442.96 364.119V412.261H1492.99V364.119H1442.96ZM1342.9 556.611V604.752H1392.93V556.611H1342.9ZM1292.87 460.365H1242.9V508.507H1292.93L1292.87 460.365ZM1442.89 508.507H1492.92V460.365H1442.89V508.507ZM1242.9 412.246H1192.87V460.387H1242.9V412.246ZM1242.9 556.611V604.752H1292.93V556.611H1242.9Z" fill="black"/>
<path d="M550.299 366.729H500.269V414.87H550.299V366.729ZM350.256 414.848V462.99H400.286V414.848H350.256ZM450.317 366.729H400.286V414.87H450.317V366.729ZM500.347 559.22V607.362H550.377V559.22H500.347ZM350.256 511.094V559.235H400.286V511.094H350.256ZM650.32 366.729H600.29V414.87H650.32V366.729ZM750.381 366.729H700.351V414.87H750.381V366.729ZM450.317 559.22H400.286V607.362H450.317V559.22ZM750.342 703.57V655.428H700.312V703.57H750.342ZM750.342 607.287V559.145H700.312V607.287H750.342ZM650.32 751.712H700.351V703.57H650.32V751.712ZM750.381 511.094V462.952H700.351V511.094H750.381ZM450.317 751.712H500.347V703.57H450.317V751.712ZM350.256 751.712H400.286V703.57H350.256V751.712ZM550.299 751.712H600.329V703.57H550.299V751.712ZM350.256 607.339V655.481H400.286V607.339H350.256ZM600.314 462.975V414.833H550.283V462.975H600.314ZM550.283 559.258H600.314V511.116H550.283V559.258ZM500.253 655.541V703.683H550.283V655.541H500.253ZM600.314 607.4H650.344V559.258H600.314V607.4ZM600.314 511.154H650.344V463.012H600.314V511.154ZM600.314 655.526V703.668H650.344V655.526H600.314ZM400.286 655.466V703.608H450.317V655.466H400.286ZM500.347 462.975V414.833H450.317V462.975H500.347ZM650.375 655.466H700.405V607.324H650.375V655.466ZM550.315 511.094V462.952H500.284V511.094H550.315ZM650.375 414.848V462.99H700.405V414.848H650.375ZM550.315 607.339V655.481H600.345V607.339H550.315ZM500.284 511.094H450.317V559.235H500.347L500.284 511.094ZM650.313 559.235H700.343V511.094H650.313V559.235ZM450.317 462.975H400.286V511.116H450.317V462.975ZM450.317 607.339V655.481H500.347V607.339H450.317Z" fill="black"/>
<path d="M942.756 366.729H892.726V414.87H942.756V366.729ZM742.713 414.848V462.99H792.743V414.848H742.713ZM842.774 366.729H792.743V414.87H842.774V366.729ZM892.804 559.22V607.362H942.834V559.22H892.804ZM742.713 511.094V559.235H792.743V511.094H742.713ZM1042.78 366.729H992.747V414.87H1042.78V366.729ZM1142.84 366.729H1092.81V414.87H1142.84V366.729ZM842.774 559.22H792.743V607.362H842.774V559.22ZM1142.8 703.57V655.428H1092.77V703.57H1142.8ZM1142.8 607.287V559.145H1092.77V607.287H1142.8ZM1042.78 751.712H1092.81V703.57H1042.78V751.712ZM1142.84 511.094V462.952H1092.81V511.094H1142.84ZM842.774 751.712H892.804V703.57H842.774V751.712ZM742.713 751.712H792.743V703.57H742.713V751.712ZM942.756 751.712H992.786V703.57H942.756V751.712ZM742.713 607.339V655.481H792.743V607.339H742.713ZM992.771 462.975V414.833H942.74V462.975H992.771ZM942.74 559.258H992.771V511.116H942.74V559.258ZM892.71 655.541V703.683H942.74V655.541H892.71ZM992.771 607.4H1042.8V559.258H992.771V607.4ZM992.771 511.154H1042.8V463.012H992.771V511.154ZM992.771 655.526V703.668H1042.8V655.526H992.771ZM792.743 655.466V703.608H842.774V655.466H792.743ZM892.804 462.975V414.833H842.774V462.975H892.804ZM1042.83 655.466H1092.86V607.324H1042.83V655.466ZM942.772 511.094V462.952H892.741V511.094H942.772ZM1042.83 414.848V462.99H1092.86V414.848H1042.83ZM942.772 607.339V655.481H992.802V607.339H942.772ZM892.741 511.094H842.774V559.235H892.804L892.741 511.094ZM1042.77 559.235H1092.8V511.094H1042.77V559.235ZM842.774 462.975H792.743V511.116H842.774V462.975ZM842.774 607.339V655.481H892.804V607.339H842.774Z" fill="black"/>
<path d="M1342.88 366.729H1292.85V414.87H1342.88V366.729ZM1142.84 414.848V462.99H1192.87V414.848H1142.84ZM1242.9 366.729H1192.87V414.87H1242.9V366.729ZM1292.93 559.22V607.362H1342.96V559.22H1292.93ZM1142.84 511.094V559.235H1192.87V511.094H1142.84ZM1442.9 366.729H1392.87V414.87H1442.9V366.729ZM1542.96 366.729H1492.93V414.87H1542.96V366.729ZM1242.9 559.22H1192.87V607.362H1242.9V559.22ZM1542.92 703.57V655.428H1492.89V703.57H1542.92ZM1542.92 607.287V559.145H1492.89V607.287H1542.92ZM1442.9 751.712H1492.93V703.57H1442.9V751.712ZM1542.96 511.094V462.952H1492.93V511.094H1542.96ZM1242.9 751.712H1292.93V703.57H1242.9V751.712ZM1142.84 751.712H1192.87V703.57H1142.84V751.712ZM1342.88 751.712H1392.91V703.57H1342.88V751.712ZM1142.84 607.339V655.481H1192.87V607.339H1142.84ZM1392.9 462.975V414.833H1342.87V462.975H1392.9ZM1342.87 559.258H1392.9V511.116H1342.87V559.258ZM1292.83 655.541V703.683H1342.87V655.541H1292.83ZM1392.9 607.4H1442.93V559.258H1392.9V607.4ZM1392.9 511.154H1442.93V463.012H1392.9V511.154ZM1392.9 655.526V703.668H1442.93V655.526H1392.9ZM1192.87 655.466V703.608H1242.9V655.466H1192.87ZM1292.93 462.975V414.833H1242.9V462.975H1292.93ZM1442.96 655.466H1492.99V607.324H1442.96V655.466ZM1342.9 511.094V462.952H1292.87V511.094H1342.9ZM1442.96 414.848V462.99H1492.99V414.848H1442.96ZM1342.9 607.339V655.481H1392.93V607.339H1342.9ZM1292.87 511.094H1242.9V559.235H1292.93L1292.87 511.094ZM1442.89 559.235H1492.92V511.094H1442.89V559.235ZM1242.9 462.975H1192.87V511.116H1242.9V462.975ZM1242.9 607.339V655.481H1292.93V607.339H1242.9Z" fill="black"/>
<path d="M148.058 473H97.524V521.142H148.058V473ZM-54 521.119V569.261H-3.46567V521.119H-54ZM47.0687 473H-3.46567V521.142H47.0687V473ZM97.603 665.492V713.633H148.137V665.492H97.603ZM-54 617.365V665.507H-3.46567V617.365H-54ZM249.088 473H198.553V521.142H249.088V473ZM350.156 473H299.622V521.142H350.156V473ZM47.0687 665.492H-3.46567V713.633H47.0687V665.492ZM350.117 809.841V761.7H299.582V809.841H350.117ZM350.117 713.558V665.416H299.582V713.558H350.117ZM249.088 857.983H299.622V809.841H249.088V857.983ZM350.156 617.365V569.223H299.622V617.365H350.156ZM47.0687 857.983H97.603V809.841H47.0687V857.983ZM-54 857.983H-3.46567V809.841H-54V857.983ZM148.058 857.983H198.593V809.841H148.058V857.983ZM-54 713.611V761.752H-3.46567V713.611H-54ZM198.577 569.246V521.104H148.043V569.246H198.577ZM148.043 665.529H198.577V617.387H148.043V665.529ZM97.5083 761.812V809.954H148.043V761.812H97.5083ZM198.577 713.671H249.111V665.529H198.577V713.671ZM198.577 617.425H249.111V569.283H198.577V617.425ZM198.577 761.797V809.939H249.111V761.797H198.577ZM-3.46567 761.737V809.879H47.0687V761.737H-3.46567ZM97.603 569.246V521.104H47.0687V569.246H97.603ZM249.143 761.737H299.677V713.596H249.143V761.737ZM148.074 617.365V569.223H97.5398V617.365H148.074ZM249.143 521.119V569.261H299.677V521.119H249.143ZM148.074 713.611V761.752H198.609V713.611H148.074ZM97.5398 617.365H47.0687V665.507H97.603L97.5398 617.365ZM249.08 665.507H299.614V617.365H249.08V665.507ZM47.0687 569.246H-3.46567V617.387H47.0687V569.246ZM47.0687 713.611V761.752H97.603V713.611H47.0687Z" fill="black"/>
<path d="M544.469 473H493.935V521.142H544.469V473ZM342.411 521.119V569.261H392.945V521.119H342.411ZM443.48 473H392.945V521.142H443.48V473ZM494.014 665.492V713.633H544.548V665.492H494.014ZM342.411 617.365V665.507H392.945V617.365H342.411ZM645.499 473H594.964V521.142H645.499V473ZM746.567 473H696.033V521.142H746.567V473ZM443.48 665.492H392.945V713.633H443.48V665.492ZM746.528 809.841V761.7H695.993V809.841H746.528ZM746.528 713.558V665.416H695.993V713.558H746.528ZM645.499 857.983H696.033V809.841H645.499V857.983ZM746.567 617.365V569.223H696.033V617.365H746.567ZM443.48 857.983H494.014V809.841H443.48V857.983ZM342.411 857.983H392.945V809.841H342.411V857.983ZM544.469 857.983H595.004V809.841H544.469V857.983ZM342.411 713.611V761.752H392.945V713.611H342.411ZM594.988 569.246V521.104H544.454V569.246H594.988ZM544.454 665.529H594.988V617.387H544.454V665.529ZM493.919 761.812V809.954H544.454V761.812H493.919ZM594.988 713.671H645.522V665.529H594.988V713.671ZM594.988 617.425H645.522V569.283H594.988V617.425ZM594.988 761.797V809.939H645.522V761.797H594.988ZM392.945 761.737V809.879H443.48V761.737H392.945ZM494.014 569.246V521.104H443.48V569.246H494.014ZM645.554 761.737H696.088V713.596H645.554V761.737ZM544.485 617.365V569.223H493.951V617.365H544.485ZM645.554 521.119V569.261H696.088V521.119H645.554ZM544.485 713.611V761.752H595.02V713.611H544.485ZM493.951 617.365H443.48V665.507H494.014L493.951 617.365ZM645.491 665.507H696.025V617.365H645.491V665.507ZM443.48 569.246H392.945V617.387H443.48V569.246ZM443.48 713.611V761.752H494.014V713.611H443.48Z" fill="black"/>
<path d="M948.626 473H898.091V521.142H948.626V473ZM746.567 521.119V569.261H797.102V521.119H746.567ZM847.636 473H797.102V521.142H847.636V473ZM898.17 665.492V713.633H948.705V665.492H898.17ZM746.567 617.365V665.507H797.102V617.365H746.567ZM1049.65 473H999.121V521.142H1049.65V473ZM1150.72 473H1100.19V521.142H1150.72V473ZM847.636 665.492H797.102V713.633H847.636V665.492ZM1150.68 809.841V761.7H1100.15V809.841H1150.68ZM1150.68 713.558V665.416H1100.15V713.558H1150.68ZM1049.65 857.983H1100.19V809.841H1049.65V857.983ZM1150.72 617.365V569.223H1100.19V617.365H1150.72ZM847.636 857.983H898.17V809.841H847.636V857.983ZM746.567 857.983H797.102V809.841H746.567V857.983ZM948.626 857.983H999.16V809.841H948.626V857.983ZM746.567 713.611V761.752H797.102V713.611H746.567ZM999.144 569.246V521.104H948.61V569.246H999.144ZM948.61 665.529H999.144V617.387H948.61V665.529ZM898.076 761.812V809.954H948.61V761.812H898.076ZM999.144 713.671H1049.68V665.529H999.144V713.671ZM999.144 617.425H1049.68V569.283H999.144V617.425ZM999.144 761.797V809.939H1049.68V761.797H999.144ZM797.102 761.737V809.879H847.636V761.737H797.102ZM898.17 569.246V521.104H847.636V569.246H898.17ZM1049.71 761.737H1100.24V713.596H1049.71V761.737ZM948.642 617.365V569.223H898.107V617.365H948.642ZM1049.71 521.119V569.261H1100.24V521.119H1049.71ZM948.642 713.611V761.752H999.176V713.611H948.642ZM898.107 617.365H847.636V665.507H898.17L898.107 617.365ZM1049.65 665.507H1100.18V617.365H1049.65V665.507ZM847.636 569.246H797.102V617.387H847.636V569.246ZM847.636 713.611V761.752H898.17V713.611H847.636Z" fill="black"/>
<path d="M148.058 523.729H97.524V571.87H148.058V523.729ZM-54 571.848V619.99H-3.46567V571.848H-54ZM47.0687 523.729H-3.46567V571.87H47.0687V523.729ZM97.603 716.22V764.362H148.137V716.22H97.603ZM-54 668.094V716.235H-3.46567V668.094H-54ZM249.088 523.729H198.553V571.87H249.088V523.729ZM350.156 523.729H299.622V571.87H350.156V523.729ZM47.0687 716.22H-3.46567V764.362H47.0687V716.22ZM350.117 860.57V812.428H299.582V860.57H350.117ZM350.117 764.287V716.145H299.582V764.287H350.117ZM249.088 908.712H299.622V860.57H249.088V908.712ZM350.156 668.094V619.952H299.622V668.094H350.156ZM47.0687 908.712H97.603V860.57H47.0687V908.712ZM-54 908.712H-3.46567V860.57H-54V908.712ZM148.058 908.712H198.593V860.57H148.058V908.712ZM-54 764.339V812.481H-3.46567V764.339H-54ZM198.577 619.975V571.833H148.043V619.975H198.577ZM148.043 716.258H198.577V668.116H148.043V716.258ZM97.5083 812.541V860.683H148.043V812.541H97.5083ZM198.577 764.4H249.111V716.258H198.577V764.4ZM198.577 668.154H249.111V620.012H198.577V668.154ZM198.577 812.526V860.668H249.111V812.526H198.577ZM-3.46567 812.466V860.608H47.0687V812.466H-3.46567ZM97.603 619.975V571.833H47.0687V619.975H97.603ZM249.143 812.466H299.677V764.324H249.143V812.466ZM148.074 668.094V619.952H97.5398V668.094H148.074ZM249.143 571.848V619.99H299.677V571.848H249.143ZM148.074 764.339V812.481H198.609V764.339H148.074ZM97.5398 668.094H47.0687V716.235H97.603L97.5398 668.094ZM249.08 716.235H299.614V668.094H249.08V716.235ZM47.0687 619.975H-3.46567V668.116H47.0687V619.975ZM47.0687 764.339V812.481H97.603V764.339H47.0687Z" fill="black"/>
<path d="M544.469 523.729H493.935V571.87H544.469V523.729ZM342.411 571.848V619.99H392.945V571.848H342.411ZM443.48 523.729H392.945V571.87H443.48V523.729ZM494.014 716.22V764.362H544.548V716.22H494.014ZM342.411 668.094V716.235H392.945V668.094H342.411ZM645.499 523.729H594.964V571.87H645.499V523.729ZM746.567 523.729H696.033V571.87H746.567V523.729ZM443.48 716.22H392.945V764.362H443.48V716.22ZM746.528 860.57V812.428H695.993V860.57H746.528ZM746.528 764.287V716.145H695.993V764.287H746.528ZM645.499 908.712H696.033V860.57H645.499V908.712ZM746.567 668.094V619.952H696.033V668.094H746.567ZM443.48 908.712H494.014V860.57H443.48V908.712ZM342.411 908.712H392.945V860.57H342.411V908.712ZM544.469 908.712H595.004V860.57H544.469V908.712ZM342.411 764.339V812.481H392.945V764.339H342.411ZM594.988 619.975V571.833H544.454V619.975H594.988ZM544.454 716.258H594.988V668.116H544.454V716.258ZM493.919 812.541V860.683H544.454V812.541H493.919ZM594.988 764.4H645.522V716.258H594.988V764.4ZM594.988 668.154H645.522V620.012H594.988V668.154ZM594.988 812.526V860.668H645.522V812.526H594.988ZM392.945 812.466V860.608H443.48V812.466H392.945ZM494.014 619.975V571.833H443.48V619.975H494.014ZM645.554 812.466H696.088V764.324H645.554V812.466ZM544.485 668.094V619.952H493.951V668.094H544.485ZM645.554 571.848V619.99H696.088V571.848H645.554ZM544.485 764.339V812.481H595.02V764.339H544.485ZM493.951 668.094H443.48V716.235H494.014L493.951 668.094ZM645.491 716.235H696.025V668.094H645.491V716.235ZM443.48 619.975H392.945V668.116H443.48V619.975ZM443.48 764.339V812.481H494.014V764.339H443.48Z" fill="black"/>
<path d="M948.626 523.729H898.091V571.87H948.626V523.729ZM746.567 571.848V619.99H797.102V571.848H746.567ZM847.636 523.729H797.102V571.87H847.636V523.729ZM898.17 716.22V764.362H948.705V716.22H898.17ZM746.567 668.094V716.235H797.102V668.094H746.567ZM1049.65 523.729H999.121V571.87H1049.65V523.729ZM1150.72 523.729H1100.19V571.87H1150.72V523.729ZM847.636 716.22H797.102V764.362H847.636V716.22ZM1150.68 860.57V812.428H1100.15V860.57H1150.68ZM1150.68 764.287V716.145H1100.15V764.287H1150.68ZM1049.65 908.712H1100.19V860.57H1049.65V908.712ZM1150.72 668.094V619.952H1100.19V668.094H1150.72ZM847.636 908.712H898.17V860.57H847.636V908.712ZM746.567 908.712H797.102V860.57H746.567V908.712ZM948.626 908.712H999.16V860.57H948.626V908.712ZM746.567 764.339V812.481H797.102V764.339H746.567ZM999.144 619.975V571.833H948.61V619.975H999.144ZM948.61 716.258H999.144V668.116H948.61V716.258ZM898.076 812.541V860.683H948.61V812.541H898.076ZM999.144 764.4H1049.68V716.258H999.144V764.4ZM999.144 668.154H1049.68V620.012H999.144V668.154ZM999.144 812.526V860.668H1049.68V812.526H999.144ZM797.102 812.466V860.608H847.636V812.466H797.102ZM898.17 619.975V571.833H847.636V619.975H898.17ZM1049.71 812.466H1100.24V764.324H1049.71V812.466ZM948.642 668.094V619.952H898.107V668.094H948.642ZM1049.71 571.848V619.99H1100.24V571.848H1049.71ZM948.642 764.339V812.481H999.176V764.339H948.642ZM898.107 668.094H847.636V716.235H898.17L898.107 668.094ZM1049.65 716.235H1100.18V668.094H1049.65V716.235ZM847.636 619.975H797.102V668.116H847.636V619.975ZM847.636 764.339V812.481H898.17V764.339H847.636Z" fill="black"/>
<path d="M552.335 473H501.8V521.142H552.335V473ZM350.276 521.119V569.261H400.811V521.119H350.276ZM451.345 473H400.811V521.142H451.345V473ZM501.879 665.492V713.633H552.414V665.492H501.879ZM350.276 617.365V665.507H400.811V617.365H350.276ZM653.364 473H602.83V521.142H653.364V473ZM754.433 473H703.898V521.142H754.433V473ZM451.345 665.492H400.811V713.633H451.345V665.492ZM754.393 809.841V761.7H703.859V809.841H754.393ZM754.393 713.558V665.416H703.859V713.558H754.393ZM653.364 857.983H703.898V809.841H653.364V857.983ZM754.433 617.365V569.223H703.898V617.365H754.433ZM451.345 857.983H501.879V809.841H451.345V857.983ZM350.276 857.983H400.811V809.841H350.276V857.983ZM552.335 857.983H602.869V809.841H552.335V857.983ZM350.276 713.611V761.752H400.811V713.611H350.276ZM602.853 569.246V521.104H552.319V569.246H602.853ZM552.319 665.529H602.853V617.387H552.319V665.529ZM501.785 761.812V809.954H552.319V761.812H501.785ZM602.853 713.671H653.388V665.529H602.853V713.671ZM602.853 617.425H653.388V569.283H602.853V617.425ZM602.853 761.797V809.939H653.388V761.797H602.853ZM400.811 761.737V809.879H451.345V761.737H400.811ZM501.879 569.246V521.104H451.345V569.246H501.879ZM653.419 761.737H703.954V713.596H653.419V761.737ZM552.351 617.365V569.223H501.816V617.365H552.351ZM653.419 521.119V569.261H703.954V521.119H653.419ZM552.351 713.611V761.752H602.885V713.611H552.351ZM501.816 617.365H451.345V665.507H501.879L501.816 617.365ZM653.356 665.507H703.89V617.365H653.356V665.507ZM451.345 569.246H400.811V617.387H451.345V569.246ZM451.345 713.611V761.752H501.879V713.611H451.345Z" fill="black"/>
<path d="M948.746 473H898.212V521.142H948.746V473ZM746.688 521.119V569.261H797.222V521.119H746.688ZM847.756 473H797.222V521.142H847.756V473ZM898.29 665.492V713.633H948.825V665.492H898.29ZM746.688 617.365V665.507H797.222V617.365H746.688ZM1049.78 473H999.241V521.142H1049.78V473ZM1150.84 473H1100.31V521.142H1150.84V473ZM847.756 665.492H797.222V713.633H847.756V665.492ZM1150.8 809.841V761.7H1100.27V809.841H1150.8ZM1150.8 713.558V665.416H1100.27V713.558H1150.8ZM1049.78 857.983H1100.31V809.841H1049.78V857.983ZM1150.84 617.365V569.223H1100.31V617.365H1150.84ZM847.756 857.983H898.29V809.841H847.756V857.983ZM746.688 857.983H797.222V809.841H746.688V857.983ZM948.746 857.983H999.28V809.841H948.746V857.983ZM746.688 713.611V761.752H797.222V713.611H746.688ZM999.264 569.246V521.104H948.73V569.246H999.264ZM948.73 665.529H999.264V617.387H948.73V665.529ZM898.196 761.812V809.954H948.73V761.812H898.196ZM999.264 713.671H1049.8V665.529H999.264V713.671ZM999.264 617.425H1049.8V569.283H999.264V617.425ZM999.264 761.797V809.939H1049.8V761.797H999.264ZM797.222 761.737V809.879H847.756V761.737H797.222ZM898.29 569.246V521.104H847.756V569.246H898.29ZM1049.83 761.737H1100.36V713.596H1049.83V761.737ZM948.762 617.365V569.223H898.227V617.365H948.762ZM1049.83 521.119V569.261H1100.36V521.119H1049.83ZM948.762 713.611V761.752H999.296V713.611H948.762ZM898.227 617.365H847.756V665.507H898.29L898.227 617.365ZM1049.77 665.507H1100.3V617.365H1049.77V665.507ZM847.756 569.246H797.222V617.387H847.756V569.246ZM847.756 713.611V761.752H898.29V713.611H847.756Z" fill="black"/>
<path d="M1352.9 473H1302.37V521.142H1352.9V473ZM1150.84 521.119V569.261H1201.38V521.119H1150.84ZM1251.91 473H1201.38V521.142H1251.91V473ZM1302.45 665.492V713.633H1352.98V665.492H1302.45ZM1150.84 617.365V665.507H1201.38V617.365H1150.84ZM1453.93 473H1403.4V521.142H1453.93V473ZM1555 473H1504.47V521.142H1555V473ZM1251.91 665.492H1201.38V713.633H1251.91V665.492ZM1554.96 809.841V761.7H1504.43V809.841H1554.96ZM1554.96 713.558V665.416H1504.43V713.558H1554.96ZM1453.93 857.983H1504.47V809.841H1453.93V857.983ZM1555 617.365V569.223H1504.47V617.365H1555ZM1251.91 857.983H1302.45V809.841H1251.91V857.983ZM1150.84 857.983H1201.38V809.841H1150.84V857.983ZM1352.9 857.983H1403.44V809.841H1352.9V857.983ZM1150.84 713.611V761.752H1201.38V713.611H1150.84ZM1403.42 569.246V521.104H1352.89V569.246H1403.42ZM1352.89 665.529H1403.42V617.387H1352.89V665.529ZM1302.35 761.812V809.954H1352.89V761.812H1302.35ZM1403.42 713.671H1453.95V665.529H1403.42V713.671ZM1403.42 617.425H1453.95V569.283H1403.42V617.425ZM1403.42 761.797V809.939H1453.95V761.797H1403.42ZM1201.38 761.737V809.879H1251.91V761.737H1201.38ZM1302.45 569.246V521.104H1251.91V569.246H1302.45ZM1453.99 761.737H1504.52V713.596H1453.99V761.737ZM1352.92 617.365V569.223H1302.38V617.365H1352.92ZM1453.99 521.119V569.261H1504.52V521.119H1453.99ZM1352.92 713.611V761.752H1403.45V713.611H1352.92ZM1302.38 617.365H1251.91V665.507H1302.45L1302.38 617.365ZM1453.92 665.507H1504.46V617.365H1453.92V665.507ZM1251.91 569.246H1201.38V617.387H1251.91V569.246ZM1251.91 713.611V761.752H1302.45V713.611H1251.91Z" fill="black"/>
<path d="M552.335 523.729H501.8V571.87H552.335V523.729ZM350.276 571.848V619.99H400.811V571.848H350.276ZM451.345 523.729H400.811V571.87H451.345V523.729ZM501.879 716.22V764.362H552.414V716.22H501.879ZM350.276 668.094V716.235H400.811V668.094H350.276ZM653.364 523.729H602.83V571.87H653.364V523.729ZM754.433 523.729H703.898V571.87H754.433V523.729ZM451.345 716.22H400.811V764.362H451.345V716.22ZM754.393 860.57V812.428H703.859V860.57H754.393ZM754.393 764.287V716.145H703.859V764.287H754.393ZM653.364 908.712H703.898V860.57H653.364V908.712ZM754.433 668.094V619.952H703.898V668.094H754.433ZM451.345 908.712H501.879V860.57H451.345V908.712ZM350.276 908.712H400.811V860.57H350.276V908.712ZM552.335 908.712H602.869V860.57H552.335V908.712ZM350.276 764.339V812.481H400.811V764.339H350.276ZM602.853 619.975V571.833H552.319V619.975H602.853ZM552.319 716.258H602.853V668.116H552.319V716.258ZM501.785 812.541V860.683H552.319V812.541H501.785ZM602.853 764.4H653.388V716.258H602.853V764.4ZM602.853 668.154H653.388V620.012H602.853V668.154ZM602.853 812.526V860.668H653.388V812.526H602.853ZM400.811 812.466V860.608H451.345V812.466H400.811ZM501.879 619.975V571.833H451.345V619.975H501.879ZM653.419 812.466H703.954V764.324H653.419V812.466ZM552.351 668.094V619.952H501.816V668.094H552.351ZM653.419 571.848V619.99H703.954V571.848H653.419ZM552.351 764.339V812.481H602.885V764.339H552.351ZM501.816 668.094H451.345V716.235H501.879L501.816 668.094ZM653.356 716.235H703.89V668.094H653.356V716.235ZM451.345 619.975H400.811V668.116H451.345V619.975ZM451.345 764.339V812.481H501.879V764.339H451.345Z" fill="black"/>
<path d="M948.746 523.729H898.212V571.87H948.746V523.729ZM746.688 571.848V619.99H797.222V571.848H746.688ZM847.756 523.729H797.222V571.87H847.756V523.729ZM898.29 716.22V764.362H948.825V716.22H898.29ZM746.688 668.094V716.235H797.222V668.094H746.688ZM1049.78 523.729H999.241V571.87H1049.78V523.729ZM1150.84 523.729H1100.31V571.87H1150.84V523.729ZM847.756 716.22H797.222V764.362H847.756V716.22ZM1150.8 860.57V812.428H1100.27V860.57H1150.8ZM1150.8 764.287V716.145H1100.27V764.287H1150.8ZM1049.78 908.712H1100.31V860.57H1049.78V908.712ZM1150.84 668.094V619.952H1100.31V668.094H1150.84ZM847.756 908.712H898.29V860.57H847.756V908.712ZM746.688 908.712H797.222V860.57H746.688V908.712ZM948.746 908.712H999.28V860.57H948.746V908.712ZM746.688 764.339V812.481H797.222V764.339H746.688ZM999.264 619.975V571.833H948.73V619.975H999.264ZM948.73 716.258H999.264V668.116H948.73V716.258ZM898.196 812.541V860.683H948.73V812.541H898.196ZM999.264 764.4H1049.8V716.258H999.264V764.4ZM999.264 668.154H1049.8V620.012H999.264V668.154ZM999.264 812.526V860.668H1049.8V812.526H999.264ZM797.222 812.466V860.608H847.756V812.466H797.222ZM898.29 619.975V571.833H847.756V619.975H898.29ZM1049.83 812.466H1100.36V764.324H1049.83V812.466ZM948.762 668.094V619.952H898.227V668.094H948.762ZM1049.83 571.848V619.99H1100.36V571.848H1049.83ZM948.762 764.339V812.481H999.296V764.339H948.762ZM898.227 668.094H847.756V716.235H898.29L898.227 668.094ZM1049.77 716.235H1100.3V668.094H1049.77V716.235ZM847.756 619.975H797.222V668.116H847.756V619.975ZM847.756 764.339V812.481H898.29V764.339H847.756Z" fill="black"/>
<path d="M1352.9 523.729H1302.37V571.87H1352.9V523.729ZM1150.84 571.848V619.99H1201.38V571.848H1150.84ZM1251.91 523.729H1201.38V571.87H1251.91V523.729ZM1302.45 716.22V764.362H1352.98V716.22H1302.45ZM1150.84 668.094V716.235H1201.38V668.094H1150.84ZM1453.93 523.729H1403.4V571.87H1453.93V523.729ZM1555 523.729H1504.47V571.87H1555V523.729ZM1251.91 716.22H1201.38V764.362H1251.91V716.22ZM1554.96 860.57V812.428H1504.43V860.57H1554.96ZM1554.96 764.287V716.145H1504.43V764.287H1554.96ZM1453.93 908.712H1504.47V860.57H1453.93V908.712ZM1555 668.094V619.952H1504.47V668.094H1555ZM1251.91 908.712H1302.45V860.57H1251.91V908.712ZM1150.84 908.712H1201.38V860.57H1150.84V908.712ZM1352.9 908.712H1403.44V860.57H1352.9V908.712ZM1150.84 764.339V812.481H1201.38V764.339H1150.84ZM1403.42 619.975V571.833H1352.89V619.975H1403.42ZM1352.89 716.258H1403.42V668.116H1352.89V716.258ZM1302.35 812.541V860.683H1352.89V812.541H1302.35ZM1403.42 764.4H1453.95V716.258H1403.42V764.4ZM1403.42 668.154H1453.95V620.012H1403.42V668.154ZM1403.42 812.526V860.668H1453.95V812.526H1403.42ZM1201.38 812.466V860.608H1251.91V812.466H1201.38ZM1302.45 619.975V571.833H1251.91V619.975H1302.45ZM1453.99 812.466H1504.52V764.324H1453.99V812.466ZM1352.92 668.094V619.952H1302.38V668.094H1352.92ZM1453.99 571.848V619.99H1504.52V571.848H1453.99ZM1352.92 764.339V812.481H1403.45V764.339H1352.92ZM1302.38 668.094H1251.91V716.235H1302.45L1302.38 668.094ZM1453.92 716.235H1504.46V668.094H1453.92V716.235ZM1251.91 619.975H1201.38V668.116H1251.91V619.975ZM1251.91 764.339V812.481H1302.45V764.339H1251.91Z" fill="black"/>
<line x1="-0.00105189" y1="315.5" x2="1440" y2="314.49" stroke="black" stroke-width="3"/>
<path d="M318.383 127.562H312.25C309.648 127.562 307.152 128.596 305.312 130.437C303.471 132.277 302.438 134.773 302.438 137.375V147.188C302.438 149.79 303.471 152.286 305.312 154.126C307.152 155.966 309.648 157 312.25 157H322.026C321.94 183.465 318.658 209.822 312.25 235.5H390.75C384.342 209.822 381.06 183.465 380.974 157H390.75C393.352 157 395.848 155.966 397.688 154.126C399.529 152.286 400.562 149.79 400.562 147.188V137.375C400.562 134.773 399.529 132.277 397.688 130.437C395.848 128.596 393.352 127.562 390.75 127.562H384.617L405.401 72.1341C405.959 70.6486 406.147 69.0501 405.951 67.4756C405.755 65.9011 405.181 64.3976 404.276 63.094C403.372 61.7904 402.165 60.7255 400.758 59.9907C399.352 59.2559 397.789 58.8731 396.202 58.875H361.312V39.25H376.031C377.332 39.25 378.58 38.7331 379.5 37.813C380.421 36.8929 380.938 35.645 380.938 34.3438V24.5312C380.938 23.23 380.421 21.9821 379.5 21.062C378.58 20.1419 377.332 19.625 376.031 19.625H361.312V4.90625C361.312 3.60503 360.796 2.35711 359.875 1.43701C358.955 0.516907 357.707 0 356.406 0L346.594 0C345.293 0 344.045 0.516907 343.125 1.43701C342.204 2.35711 341.688 3.60503 341.688 4.90625V19.625H326.969C325.668 19.625 324.42 20.1419 323.5 21.062C322.579 21.9821 322.062 23.23 322.062 24.5312V34.3438C322.062 35.645 322.579 36.8929 323.5 37.813C324.42 38.7331 325.668 39.25 326.969 39.25H341.688V58.875H306.786C305.199 58.8731 303.636 59.2559 302.229 59.9907C300.823 60.7255 299.616 61.7904 298.712 63.094C297.807 64.3976 297.232 65.9011 297.036 67.4756C296.84 69.0501 297.029 70.6486 297.586 72.1341L318.383 127.562ZM424.579 281.852L410.375 274.75V264.938C410.375 262.335 409.341 259.839 407.501 257.999C405.661 256.159 403.165 255.125 400.562 255.125H302.438C299.835 255.125 297.339 256.159 295.499 257.999C293.659 259.839 292.625 262.335 292.625 264.938V274.75L278.428 281.852C276.797 282.666 275.426 283.919 274.467 285.469C273.508 287.019 273 288.805 273 290.628V304.188C273 306.79 274.034 309.286 275.874 311.126C277.714 312.966 280.21 314 282.812 314H420.188C422.79 314 425.286 312.966 427.126 311.126C428.966 309.286 430 306.79 430 304.188V290.628C430 288.806 429.493 287.02 428.536 285.47C427.578 283.92 426.208 282.667 424.579 281.852Z" fill="black"/>
<line x1="1.5" y1="314" x2="1.5" y2="862" stroke="black" stroke-width="3"/>
</svg>
